<?xml version="1.0" standalone="no"?>
 <!DOCTYPE svg PUBLIC "-//W3C//DTD SVG 1.1//EN" 
 "http://www.w3.org/Graphics/SVG/1.1/DTD/svg11.dtd"> 
<svg xmlns="http://www.w3.org/2000/svg" version="1.1" 
    width="29.7002cm" height="21.0007cm" viewBox="0 0 116930 82680 ">
<title>SVG Picture created as ESP_LOGGER-brd.svg date 2018/10/20 17:12:27 </title>
  <desc>Picture generated by PCBNEW </desc>
<g style="fill:#000000; fill-opacity:1;stroke:#000000; stroke-opacity:1;
stroke-linecap:round; stroke-linejoin:round; "
 transform="translate(0 0) scale(1 1)">
</g>
<g style="fill:#000000; fill-opacity:0.0; 
stroke:#000000; stroke-width:-0.000393701; stroke-opacity:1; 
stroke-linecap:round; stroke-linejoin:round;">
</g>
<g style="fill:#000000; fill-opacity:0.0; 
stroke:#000000; stroke-width:39.3701; stroke-opacity:1; 
stroke-linecap:round; stroke-linejoin:round;">
</g>
<g style="fill:#000000; fill-opacity:0.0; 
stroke:#000000; stroke-width:59.0551; stroke-opacity:1; 
stroke-linecap:round; stroke-linejoin:round;">
<rect x="69685.9" y="65357.2" width="42519.7" height="12598.4" rx="0" />
</g>
<g style="fill:#000000; fill-opacity:0.0; 
stroke:#000000; stroke-width:39.3701; stroke-opacity:1; 
stroke-linecap:round; stroke-linejoin:round;">
</g>
<g style="fill:#000000; fill-opacity:0.0; 
stroke:#000000; stroke-width:59.0551; stroke-opacity:1; 
stroke-linecap:round; stroke-linejoin:round;">
<rect x="3937.01" y="3937.01" width="109056" height="74806" rx="0" />
</g>
<g style="fill:#000000; fill-opacity:0.0; 
stroke:#000000; stroke-width:39.3701; stroke-opacity:1; 
stroke-linecap:round; stroke-linejoin:round;">
</g>
<g style="fill:#000000; fill-opacity:0.0; 
stroke:#000000; stroke-width:59.0551; stroke-opacity:1; 
stroke-linecap:round; stroke-linejoin:round;">
<rect x="4724.41" y="4724.41" width="107481" height="73231.2" rx="0" />
</g>
<g style="fill:#000000; fill-opacity:0.0; 
stroke:#000000; stroke-width:39.3701; stroke-opacity:1; 
stroke-linecap:round; stroke-linejoin:round;">
</g>
<g style="fill:#000000; fill-opacity:0.0; 
stroke:#000000; stroke-width:59.0551; stroke-opacity:1; 
stroke-linecap:round; stroke-linejoin:round;">
<path d="M23622 4724
L23622 3937
" />
</g>
<g style="fill:#000000; fill-opacity:0.0; 
stroke:#000000; stroke-width:39.3701; stroke-opacity:1; 
stroke-linecap:round; stroke-linejoin:round;">
</g>
<g style="fill:#000000; fill-opacity:0.0; 
stroke:#000000; stroke-width:59.0551; stroke-opacity:1; 
stroke-linecap:round; stroke-linejoin:round;">
<path d="M43307 4724
L43307 3937
" />
</g>
<g style="fill:#000000; fill-opacity:0.0; 
stroke:#000000; stroke-width:39.3701; stroke-opacity:1; 
stroke-linecap:round; stroke-linejoin:round;">
</g>
<g style="fill:#000000; fill-opacity:0.0; 
stroke:#000000; stroke-width:59.0551; stroke-opacity:1; 
stroke-linecap:round; stroke-linejoin:round;">
<path d="M62992 4724
L62992 3937
" />
</g>
<g style="fill:#000000; fill-opacity:0.0; 
stroke:#000000; stroke-width:39.3701; stroke-opacity:1; 
stroke-linecap:round; stroke-linejoin:round;">
</g>
<g style="fill:#000000; fill-opacity:0.0; 
stroke:#000000; stroke-width:59.0551; stroke-opacity:1; 
stroke-linecap:round; stroke-linejoin:round;">
<path d="M82677 4724
L82677 3937
" />
</g>
<g style="fill:#000000; fill-opacity:0.0; 
stroke:#000000; stroke-width:39.3701; stroke-opacity:1; 
stroke-linecap:round; stroke-linejoin:round;">
</g>
<g style="fill:#000000; fill-opacity:0.0; 
stroke:#000000; stroke-width:59.0551; stroke-opacity:1; 
stroke-linecap:round; stroke-linejoin:round;">
<path d="M102362 4724
L102362 3937
" />
</g>
<g style="fill:#000000; fill-opacity:0.0; 
stroke:#000000; stroke-width:39.3701; stroke-opacity:1; 
stroke-linecap:round; stroke-linejoin:round;">
</g>
<g style="fill:#000000; fill-opacity:0.0; 
stroke:#000000; stroke-width:59.0551; stroke-opacity:1; 
stroke-linecap:round; stroke-linejoin:round;">
<path d="M14199 4562
L13906 4562
" />
<path d="M14052 4562
L14052 4050
L14004 4123
L13955 4172
L13906 4196
" />
</g>
<g style="fill:#000000; fill-opacity:0.0; 
stroke:#000000; stroke-width:39.3701; stroke-opacity:1; 
stroke-linecap:round; stroke-linejoin:round;">
</g>
<g style="fill:#000000; fill-opacity:0.0; 
stroke:#000000; stroke-width:59.0551; stroke-opacity:1; 
stroke-linecap:round; stroke-linejoin:round;">
<path d="M33591 4099
L33615 4074
L33664 4050
L33786 4050
L33835 4074
L33859 4099
L33884 4147
L33884 4196
L33859 4269
L33567 4562
L33884 4562
" />
</g>
<g style="fill:#000000; fill-opacity:0.0; 
stroke:#000000; stroke-width:39.3701; stroke-opacity:1; 
stroke-linecap:round; stroke-linejoin:round;">
</g>
<g style="fill:#000000; fill-opacity:0.0; 
stroke:#000000; stroke-width:59.0551; stroke-opacity:1; 
stroke-linecap:round; stroke-linejoin:round;">
<path d="M53252 4050
L53569 4050
L53398 4245
L53471 4245
L53520 4269
L53544 4294
L53569 4342
L53569 4464
L53544 4513
L53520 4537
L53471 4562
L53325 4562
L53276 4537
L53252 4513
" />
</g>
<g style="fill:#000000; fill-opacity:0.0; 
stroke:#000000; stroke-width:39.3701; stroke-opacity:1; 
stroke-linecap:round; stroke-linejoin:round;">
</g>
<g style="fill:#000000; fill-opacity:0.0; 
stroke:#000000; stroke-width:59.0551; stroke-opacity:1; 
stroke-linecap:round; stroke-linejoin:round;">
<path d="M73205 4221
L73205 4562
" />
<path d="M73083 4026
L72961 4391
L73278 4391
" />
</g>
<g style="fill:#000000; fill-opacity:0.0; 
stroke:#000000; stroke-width:39.3701; stroke-opacity:1; 
stroke-linecap:round; stroke-linejoin:round;">
</g>
<g style="fill:#000000; fill-opacity:0.0; 
stroke:#000000; stroke-width:59.0551; stroke-opacity:1; 
stroke-linecap:round; stroke-linejoin:round;">
<path d="M92914 4050
L92671 4050
L92646 4294
L92671 4269
L92719 4245
L92841 4245
L92890 4269
L92914 4294
L92939 4342
L92939 4464
L92914 4513
L92890 4537
L92841 4562
L92719 4562
L92671 4537
L92646 4513
" />
</g>
<g style="fill:#000000; fill-opacity:0.0; 
stroke:#000000; stroke-width:39.3701; stroke-opacity:1; 
stroke-linecap:round; stroke-linejoin:round;">
</g>
<g style="fill:#000000; fill-opacity:0.0; 
stroke:#000000; stroke-width:59.0551; stroke-opacity:1; 
stroke-linecap:round; stroke-linejoin:round;">
<path d="M112575 4050
L112477 4050
L112429 4074
L112404 4099
L112356 4172
L112331 4269
L112331 4464
L112356 4513
L112380 4537
L112429 4562
L112526 4562
L112575 4537
L112599 4513
L112624 4464
L112624 4342
L112599 4294
L112575 4269
L112526 4245
L112429 4245
L112380 4269
L112356 4294
L112331 4342
" />
</g>
<g style="fill:#000000; fill-opacity:0.0; 
stroke:#000000; stroke-width:39.3701; stroke-opacity:1; 
stroke-linecap:round; stroke-linejoin:round;">
</g>
<g style="fill:#000000; fill-opacity:0.0; 
stroke:#000000; stroke-width:59.0551; stroke-opacity:1; 
stroke-linecap:round; stroke-linejoin:round;">
<path d="M23622 77955
L23622 78742
" />
</g>
<g style="fill:#000000; fill-opacity:0.0; 
stroke:#000000; stroke-width:39.3701; stroke-opacity:1; 
stroke-linecap:round; stroke-linejoin:round;">
</g>
<g style="fill:#000000; fill-opacity:0.0; 
stroke:#000000; stroke-width:59.0551; stroke-opacity:1; 
stroke-linecap:round; stroke-linejoin:round;">
<path d="M43307 77955
L43307 78742
" />
</g>
<g style="fill:#000000; fill-opacity:0.0; 
stroke:#000000; stroke-width:39.3701; stroke-opacity:1; 
stroke-linecap:round; stroke-linejoin:round;">
</g>
<g style="fill:#000000; fill-opacity:0.0; 
stroke:#000000; stroke-width:59.0551; stroke-opacity:1; 
stroke-linecap:round; stroke-linejoin:round;">
<path d="M62992 77955
L62992 78742
" />
</g>
<g style="fill:#000000; fill-opacity:0.0; 
stroke:#000000; stroke-width:39.3701; stroke-opacity:1; 
stroke-linecap:round; stroke-linejoin:round;">
</g>
<g style="fill:#000000; fill-opacity:0.0; 
stroke:#000000; stroke-width:59.0551; stroke-opacity:1; 
stroke-linecap:round; stroke-linejoin:round;">
<path d="M82677 77955
L82677 78742
" />
</g>
<g style="fill:#000000; fill-opacity:0.0; 
stroke:#000000; stroke-width:39.3701; stroke-opacity:1; 
stroke-linecap:round; stroke-linejoin:round;">
</g>
<g style="fill:#000000; fill-opacity:0.0; 
stroke:#000000; stroke-width:59.0551; stroke-opacity:1; 
stroke-linecap:round; stroke-linejoin:round;">
<path d="M102362 77955
L102362 78742
" />
</g>
<g style="fill:#000000; fill-opacity:0.0; 
stroke:#000000; stroke-width:39.3701; stroke-opacity:1; 
stroke-linecap:round; stroke-linejoin:round;">
</g>
<g style="fill:#000000; fill-opacity:0.0; 
stroke:#000000; stroke-width:59.0551; stroke-opacity:1; 
stroke-linecap:round; stroke-linejoin:round;">
<path d="M14199 78580
L13906 78580
" />
<path d="M14052 78580
L14052 78069
L14004 78142
L13955 78190
L13906 78215
" />
</g>
<g style="fill:#000000; fill-opacity:0.0; 
stroke:#000000; stroke-width:39.3701; stroke-opacity:1; 
stroke-linecap:round; stroke-linejoin:round;">
</g>
<g style="fill:#000000; fill-opacity:0.0; 
stroke:#000000; stroke-width:59.0551; stroke-opacity:1; 
stroke-linecap:round; stroke-linejoin:round;">
<path d="M33591 78117
L33615 78093
L33664 78069
L33786 78069
L33835 78093
L33859 78117
L33884 78166
L33884 78215
L33859 78288
L33567 78580
L33884 78580
" />
</g>
<g style="fill:#000000; fill-opacity:0.0; 
stroke:#000000; stroke-width:39.3701; stroke-opacity:1; 
stroke-linecap:round; stroke-linejoin:round;">
</g>
<g style="fill:#000000; fill-opacity:0.0; 
stroke:#000000; stroke-width:59.0551; stroke-opacity:1; 
stroke-linecap:round; stroke-linejoin:round;">
<path d="M53252 78069
L53569 78069
L53398 78263
L53471 78263
L53520 78288
L53544 78312
L53569 78361
L53569 78483
L53544 78532
L53520 78556
L53471 78580
L53325 78580
L53276 78556
L53252 78532
" />
</g>
<g style="fill:#000000; fill-opacity:0.0; 
stroke:#000000; stroke-width:39.3701; stroke-opacity:1; 
stroke-linecap:round; stroke-linejoin:round;">
</g>
<g style="fill:#000000; fill-opacity:0.0; 
stroke:#000000; stroke-width:59.0551; stroke-opacity:1; 
stroke-linecap:round; stroke-linejoin:round;">
<path d="M73205 78239
L73205 78580
" />
<path d="M73083 78044
L72961 78410
L73278 78410
" />
</g>
<g style="fill:#000000; fill-opacity:0.0; 
stroke:#000000; stroke-width:39.3701; stroke-opacity:1; 
stroke-linecap:round; stroke-linejoin:round;">
</g>
<g style="fill:#000000; fill-opacity:0.0; 
stroke:#000000; stroke-width:59.0551; stroke-opacity:1; 
stroke-linecap:round; stroke-linejoin:round;">
<path d="M92914 78069
L92671 78069
L92646 78312
L92671 78288
L92719 78263
L92841 78263
L92890 78288
L92914 78312
L92939 78361
L92939 78483
L92914 78532
L92890 78556
L92841 78580
L92719 78580
L92671 78556
L92646 78532
" />
</g>
<g style="fill:#000000; fill-opacity:0.0; 
stroke:#000000; stroke-width:39.3701; stroke-opacity:1; 
stroke-linecap:round; stroke-linejoin:round;">
</g>
<g style="fill:#000000; fill-opacity:0.0; 
stroke:#000000; stroke-width:59.0551; stroke-opacity:1; 
stroke-linecap:round; stroke-linejoin:round;">
<path d="M112575 78069
L112477 78069
L112429 78093
L112404 78117
L112356 78190
L112331 78288
L112331 78483
L112356 78532
L112380 78556
L112429 78580
L112526 78580
L112575 78556
L112599 78532
L112624 78483
L112624 78361
L112599 78312
L112575 78288
L112526 78263
L112429 78263
L112380 78288
L112356 78312
L112331 78361
" />
</g>
<g style="fill:#000000; fill-opacity:0.0; 
stroke:#000000; stroke-width:39.3701; stroke-opacity:1; 
stroke-linecap:round; stroke-linejoin:round;">
</g>
<g style="fill:#000000; fill-opacity:0.0; 
stroke:#000000; stroke-width:59.0551; stroke-opacity:1; 
stroke-linecap:round; stroke-linejoin:round;">
<path d="M3937 23622
L4724 23622
" />
</g>
<g style="fill:#000000; fill-opacity:0.0; 
stroke:#000000; stroke-width:39.3701; stroke-opacity:1; 
stroke-linecap:round; stroke-linejoin:round;">
</g>
<g style="fill:#000000; fill-opacity:0.0; 
stroke:#000000; stroke-width:59.0551; stroke-opacity:1; 
stroke-linecap:round; stroke-linejoin:round;">
<path d="M3937 43307
L4724 43307
" />
</g>
<g style="fill:#000000; fill-opacity:0.0; 
stroke:#000000; stroke-width:39.3701; stroke-opacity:1; 
stroke-linecap:round; stroke-linejoin:round;">
</g>
<g style="fill:#000000; fill-opacity:0.0; 
stroke:#000000; stroke-width:59.0551; stroke-opacity:1; 
stroke-linecap:round; stroke-linejoin:round;">
<path d="M3937 62992
L4724 62992
" />
</g>
<g style="fill:#000000; fill-opacity:0.0; 
stroke:#000000; stroke-width:39.3701; stroke-opacity:1; 
stroke-linecap:round; stroke-linejoin:round;">
</g>
<g style="fill:#000000; fill-opacity:0.0; 
stroke:#000000; stroke-width:59.0551; stroke-opacity:1; 
stroke-linecap:round; stroke-linejoin:round;">
<path d="M4208 13864
L4452 13864
" />
<path d="M4160 14011
L4330 13499
L4501 14011
" />
</g>
<g style="fill:#000000; fill-opacity:0.0; 
stroke:#000000; stroke-width:39.3701; stroke-opacity:1; 
stroke-linecap:round; stroke-linejoin:round;">
</g>
<g style="fill:#000000; fill-opacity:0.0; 
stroke:#000000; stroke-width:59.0551; stroke-opacity:1; 
stroke-linecap:round; stroke-linejoin:round;">
<path d="M4367 33428
L4440 33452
L4464 33476
L4489 33525
L4489 33598
L4464 33647
L4440 33671
L4391 33696
L4196 33696
L4196 33184
L4367 33184
L4416 33208
L4440 33233
L4464 33281
L4464 33330
L4440 33379
L4416 33403
L4367 33428
L4196 33428
" />
</g>
<g style="fill:#000000; fill-opacity:0.0; 
stroke:#000000; stroke-width:39.3701; stroke-opacity:1; 
stroke-linecap:round; stroke-linejoin:round;">
</g>
<g style="fill:#000000; fill-opacity:0.0; 
stroke:#000000; stroke-width:59.0551; stroke-opacity:1; 
stroke-linecap:round; stroke-linejoin:round;">
<path d="M4489 53332
L4464 53356
L4391 53381
L4342 53381
L4269 53356
L4221 53308
L4196 53259
L4172 53161
L4172 53088
L4196 52991
L4221 52942
L4269 52893
L4342 52869
L4391 52869
L4464 52893
L4489 52918
" />
</g>
<g style="fill:#000000; fill-opacity:0.0; 
stroke:#000000; stroke-width:39.3701; stroke-opacity:1; 
stroke-linecap:round; stroke-linejoin:round;">
</g>
<g style="fill:#000000; fill-opacity:0.0; 
stroke:#000000; stroke-width:59.0551; stroke-opacity:1; 
stroke-linecap:round; stroke-linejoin:round;">
<path d="M4196 73066
L4196 72554
L4318 72554
L4391 72578
L4440 72627
L4464 72676
L4489 72773
L4489 72846
L4464 72944
L4440 72993
L4391 73041
L4318 73066
L4196 73066
" />
</g>
<g style="fill:#000000; fill-opacity:0.0; 
stroke:#000000; stroke-width:39.3701; stroke-opacity:1; 
stroke-linecap:round; stroke-linejoin:round;">
</g>
<g style="fill:#000000; fill-opacity:0.0; 
stroke:#000000; stroke-width:59.0551; stroke-opacity:1; 
stroke-linecap:round; stroke-linejoin:round;">
<path d="M112992 23622
L112205 23622
" />
</g>
<g style="fill:#000000; fill-opacity:0.0; 
stroke:#000000; stroke-width:39.3701; stroke-opacity:1; 
stroke-linecap:round; stroke-linejoin:round;">
</g>
<g style="fill:#000000; fill-opacity:0.0; 
stroke:#000000; stroke-width:59.0551; stroke-opacity:1; 
stroke-linecap:round; stroke-linejoin:round;">
<path d="M112992 43307
L112205 43307
" />
</g>
<g style="fill:#000000; fill-opacity:0.0; 
stroke:#000000; stroke-width:39.3701; stroke-opacity:1; 
stroke-linecap:round; stroke-linejoin:round;">
</g>
<g style="fill:#000000; fill-opacity:0.0; 
stroke:#000000; stroke-width:59.0551; stroke-opacity:1; 
stroke-linecap:round; stroke-linejoin:round;">
<path d="M112992 62992
L112205 62992
" />
</g>
<g style="fill:#000000; fill-opacity:0.0; 
stroke:#000000; stroke-width:39.3701; stroke-opacity:1; 
stroke-linecap:round; stroke-linejoin:round;">
</g>
<g style="fill:#000000; fill-opacity:0.0; 
stroke:#000000; stroke-width:59.0551; stroke-opacity:1; 
stroke-linecap:round; stroke-linejoin:round;">
<path d="M112477 13864
L112721 13864
" />
<path d="M112428 14011
L112599 13499
L112769 14011
" />
</g>
<g style="fill:#000000; fill-opacity:0.0; 
stroke:#000000; stroke-width:39.3701; stroke-opacity:1; 
stroke-linecap:round; stroke-linejoin:round;">
</g>
<g style="fill:#000000; fill-opacity:0.0; 
stroke:#000000; stroke-width:59.0551; stroke-opacity:1; 
stroke-linecap:round; stroke-linejoin:round;">
<path d="M112635 33428
L112708 33452
L112733 33476
L112757 33525
L112757 33598
L112733 33647
L112708 33671
L112660 33696
L112465 33696
L112465 33184
L112635 33184
L112684 33208
L112708 33233
L112733 33281
L112733 33330
L112708 33379
L112684 33403
L112635 33428
L112465 33428
" />
</g>
<g style="fill:#000000; fill-opacity:0.0; 
stroke:#000000; stroke-width:39.3701; stroke-opacity:1; 
stroke-linecap:round; stroke-linejoin:round;">
</g>
<g style="fill:#000000; fill-opacity:0.0; 
stroke:#000000; stroke-width:59.0551; stroke-opacity:1; 
stroke-linecap:round; stroke-linejoin:round;">
<path d="M112757 53332
L112733 53356
L112660 53381
L112611 53381
L112538 53356
L112489 53308
L112465 53259
L112440 53161
L112440 53088
L112465 52991
L112489 52942
L112538 52893
L112611 52869
L112660 52869
L112733 52893
L112757 52918
" />
</g>
<g style="fill:#000000; fill-opacity:0.0; 
stroke:#000000; stroke-width:39.3701; stroke-opacity:1; 
stroke-linecap:round; stroke-linejoin:round;">
</g>
<g style="fill:#000000; fill-opacity:0.0; 
stroke:#000000; stroke-width:59.0551; stroke-opacity:1; 
stroke-linecap:round; stroke-linejoin:round;">
<path d="M112465 73066
L112465 72554
L112587 72554
L112660 72578
L112708 72627
L112733 72676
L112757 72773
L112757 72846
L112733 72944
L112708 72993
L112660 73041
L112587 73066
L112465 73066
" />
</g>
<g style="fill:#000000; fill-opacity:0.0; 
stroke:#000000; stroke-width:39.3701; stroke-opacity:1; 
stroke-linecap:round; stroke-linejoin:round;">
</g>
<g style="fill:#000000; fill-opacity:0.0; 
stroke:#000000; stroke-width:59.0551; stroke-opacity:1; 
stroke-linecap:round; stroke-linejoin:round;">
<path d="M78911 76293
L78911 75703
L79051 75703
L79136 75731
L79192 75787
L79220 75843
L79248 75956
L79248 76040
L79220 76153
L79192 76209
L79136 76265
L79051 76293
L78911 76293
" />
<path d="M79754 76293
L79754 75984
L79726 75928
L79670 75899
L79557 75899
L79501 75928
" />
<path d="M79754 76265
L79698 76293
L79557 76293
L79501 76265
L79473 76209
L79473 76153
L79501 76096
L79557 76068
L79698 76068
L79754 76040
" />
<path d="M79951 75899
L80176 75899
" />
<path d="M80036 75703
L80036 76209
L80064 76265
L80120 76293
L80176 76293
" />
<path d="M80598 76265
L80542 76293
L80429 76293
L80373 76265
L80345 76209
L80345 75984
L80373 75928
L80429 75899
L80542 75899
L80598 75928
L80626 75984
L80626 76040
L80345 76096
" />
<path d="M80879 76237
L80907 76265
L80879 76293
L80851 76265
L80879 76237
L80879 76293
" />
<path d="M80879 75928
L80907 75956
L80879 75984
L80851 75956
L80879 75928
L80879 75984
" />
</g>
<g style="fill:#000000; fill-opacity:0.0; 
stroke:#000000; stroke-width:39.3701; stroke-opacity:1; 
stroke-linecap:round; stroke-linejoin:round;">
</g>
<g style="fill:#000000; fill-opacity:0.0; 
stroke:#000000; stroke-width:59.0551; stroke-opacity:1; 
stroke-linecap:round; stroke-linejoin:round;">
<path d="M69685 76577
L112205 76577
" />
</g>
<g style="fill:#000000; fill-opacity:0.0; 
stroke:#000000; stroke-width:39.3701; stroke-opacity:1; 
stroke-linecap:round; stroke-linejoin:round;">
</g>
<g style="fill:#000000; fill-opacity:0.0; 
stroke:#000000; stroke-width:59.0551; stroke-opacity:1; 
stroke-linecap:round; stroke-linejoin:round;">
<path d="M70249 77395
L70249 76805
" />
<path d="M70587 77395
L70334 77058
" />
<path d="M70587 76805
L70249 77142
" />
<path d="M70840 77395
L70840 77002
" />
<path d="M70840 76805
L70812 76833
L70840 76861
L70868 76833
L70840 76805
L70840 76861
" />
<path d="M71458 77339
L71430 77367
L71346 77395
L71290 77395
L71205 77367
L71149 77311
L71121 77255
L71093 77142
L71093 77058
L71121 76946
L71149 76889
L71205 76833
L71290 76805
L71346 76805
L71430 76833
L71458 76861
" />
<path d="M71965 77395
L71965 77086
L71937 77030
L71880 77002
L71768 77002
L71712 77030
" />
<path d="M71965 77367
L71908 77395
L71768 77395
L71712 77367
L71683 77311
L71683 77255
L71712 77199
L71768 77171
L71908 77171
L71965 77142
" />
<path d="M72499 77395
L72499 76805
" />
<path d="M72499 77367
L72443 77395
L72330 77395
L72274 77367
L72246 77339
L72218 77283
L72218 77114
L72246 77058
L72274 77030
L72330 77002
L72443 77002
L72499 77030
" />
<path d="M73230 77086
L73427 77086
" />
<path d="M73511 77395
L73230 77395
L73230 76805
L73511 76805
" />
<path d="M73764 77339
L73793 77367
L73764 77395
L73736 77367
L73764 77339
L73764 77395
" />
<path d="M74046 77395
L74046 76805
L74186 76805
L74271 76833
L74327 76889
L74355 76946
L74383 77058
L74383 77142
L74355 77255
L74327 77311
L74271 77367
L74186 77395
L74046 77395
" />
<path d="M74636 77339
L74664 77367
L74636 77395
L74608 77367
L74636 77339
L74636 77395
" />
<path d="M74889 77227
L75171 77227
" />
<path d="M74833 77395
L75030 76805
L75227 77395
" />
<path d="M75424 77339
L75452 77367
L75424 77395
L75395 77367
L75424 77339
L75424 77395
" />
<path d="M76605 77395
L76605 76805
" />
<path d="M76661 77171
L76830 77395
" />
<path d="M76830 77002
L76605 77227
" />
<path d="M77083 77395
L77083 77002
" />
<path d="M77083 76805
L77055 76833
L77083 76861
L77111 76833
L77083 76805
L77083 76861
" />
<path d="M77617 77367
L77561 77395
L77448 77395
L77392 77367
L77364 77339
L77336 77283
L77336 77114
L77364 77058
L77392 77030
L77448 77002
L77561 77002
L77617 77030
" />
<path d="M78123 77395
L78123 77086
L78095 77030
L78039 77002
L77926 77002
L77870 77030
" />
<path d="M78123 77367
L78067 77395
L77926 77395
L77870 77367
L77842 77311
L77842 77255
L77870 77199
L77926 77171
L78067 77171
L78123 77142
" />
<path d="M78658 77395
L78658 76805
" />
<path d="M78658 77367
L78601 77395
L78489 77395
L78433 77367
L78404 77339
L78376 77283
L78376 77114
L78404 77058
L78433 77030
L78489 77002
L78601 77002
L78658 77030
" />
<path d="M79670 76805
L79389 76805
L79361 77086
L79389 77058
L79445 77030
L79586 77030
L79642 77058
L79670 77086
L79698 77142
L79698 77283
L79670 77339
L79642 77367
L79586 77395
L79445 77395
L79389 77367
L79361 77339
" />
<path d="M79951 77339
L79979 77367
L79951 77395
L79923 77367
L79951 77339
L79951 77395
" />
<path d="M80345 76805
L80401 76805
L80457 76833
L80485 76861
L80514 76917
L80542 77030
L80542 77171
L80514 77283
L80485 77339
L80457 77367
L80401 77395
L80345 77395
L80289 77367
L80260 77339
L80232 77283
L80204 77171
L80204 77030
L80232 76917
L80260 76861
L80289 76833
L80345 76805
" />
<path d="M80795 77339
L80823 77367
L80795 77395
L80767 77367
L80795 77339
L80795 77395
" />
<path d="M81188 76805
L81245 76805
L81301 76833
L81329 76861
L81357 76917
L81385 77030
L81385 77171
L81357 77283
L81329 77339
L81301 77367
L81245 77395
L81188 77395
L81132 77367
L81104 77339
L81076 77283
L81048 77171
L81048 77030
L81076 76917
L81104 76861
L81132 76833
L81188 76805
" />
<path d="M81638 77171
L82088 77171
" />
<path d="M82285 77002
L82510 77002
" />
<path d="M82370 77395
L82370 76889
L82398 76833
L82454 76805
L82510 76805
" />
<path d="M82932 77367
L82876 77395
L82763 77395
L82707 77367
L82679 77311
L82679 77086
L82707 77030
L82763 77002
L82876 77002
L82932 77030
L82960 77086
L82960 77142
L82679 77199
" />
<path d="M83438 77367
L83382 77395
L83269 77395
L83213 77367
L83185 77311
L83185 77086
L83213 77030
L83269 77002
L83382 77002
L83438 77030
L83466 77086
L83466 77142
L83185 77199
" />
<path d="M83973 77002
L83973 77395
" />
<path d="M83832 76777
L83691 77199
L84057 77199
" />
<path d="M84197 77002
L84422 77002
" />
<path d="M84282 77395
L84282 76889
L84310 76833
L84366 76805
L84422 76805
" />
<path d="M84872 77395
L84872 76805
" />
<path d="M84872 77367
L84816 77395
L84704 77395
L84647 77367
L84619 77339
L84591 77283
L84591 77114
L84619 77058
L84647 77030
L84704 77002
L84816 77002
L84872 77030
" />
<path d="M85463 77395
L85126 77395
" />
<path d="M85294 77395
L85294 76805
L85238 76889
L85182 76946
L85126 76974
" />
<path d="M85575 76644
L86138 76644
" />
<path d="M85969 76805
L85857 76805
L85800 76833
L85772 76861
L85716 76946
L85688 77058
L85688 77283
L85716 77339
L85744 77367
L85800 77395
L85913 77395
L85969 77367
L85997 77339
L86025 77283
L86025 77142
L85997 77086
L85969 77058
L85913 77030
L85800 77030
L85744 77058
L85716 77086
L85688 77142
" />
<path d="M86138 76644
L86700 76644
" />
<path d="M86532 76805
L86419 76805
L86363 76833
L86335 76861
L86278 76946
L86250 77058
L86250 77283
L86278 77339
L86307 77367
L86363 77395
L86475 77395
L86532 77367
L86560 77339
L86588 77283
L86588 77142
L86560 77086
L86532 77058
L86475 77030
L86363 77030
L86307 77058
L86278 77086
L86250 77142
" />
<path d="M87094 77002
L87094 77395
" />
<path d="M86841 77002
L86841 77311
L86869 77367
L86925 77395
L87010 77395
L87066 77367
L87094 77339
" />
<path d="M87375 77395
L87375 76805
" />
<path d="M87375 77030
L87431 77002
L87544 77002
L87600 77030
L87628 77058
L87656 77114
L87656 77283
L87628 77339
L87600 77367
L87544 77395
L87431 77395
L87375 77367
" />
<path d="M88163 77002
L88163 77395
" />
<path d="M87910 77002
L87910 77311
L87938 77367
L87994 77395
L88078 77395
L88135 77367
L88163 77339
" />
<path d="M88444 77002
L88444 77395
" />
<path d="M88444 77058
L88472 77030
L88528 77002
L88613 77002
L88669 77030
L88697 77086
L88697 77395
" />
<path d="M88894 77002
L89119 77002
" />
<path d="M88978 76805
L88978 77311
L89006 77367
L89063 77395
L89119 77395
" />
<path d="M89569 77002
L89569 77395
" />
<path d="M89316 77002
L89316 77311
L89344 77367
L89400 77395
L89484 77395
L89541 77367
L89569 77339
" />
<path d="M90159 77395
L89822 77395
" />
<path d="M89991 77395
L89991 76805
L89934 76889
L89878 76946
L89822 76974
" />
<path d="M90665 76805
L90553 76805
L90497 76833
L90469 76861
L90412 76946
L90384 77058
L90384 77283
L90412 77339
L90440 77367
L90497 77395
L90609 77395
L90665 77367
L90694 77339
L90722 77283
L90722 77142
L90694 77086
L90665 77058
L90609 77030
L90497 77030
L90440 77058
L90412 77086
L90384 77142
" />
<path d="M90975 77339
L91003 77367
L90975 77395
L90947 77367
L90975 77339
L90975 77395
" />
<path d="M91368 76805
L91425 76805
L91481 76833
L91509 76861
L91537 76917
L91565 77030
L91565 77171
L91537 77283
L91509 77339
L91481 77367
L91425 77395
L91368 77395
L91312 77367
L91284 77339
L91256 77283
L91228 77171
L91228 77030
L91256 76917
L91284 76861
L91312 76833
L91368 76805
" />
<path d="M92072 77002
L92072 77395
" />
<path d="M91931 76777
L91790 77199
L92156 77199
" />
<path d="M92381 77339
L92409 77367
L92381 77395
L92353 77367
L92381 77339
L92381 77395
" />
<path d="M92971 77395
L92634 77395
" />
<path d="M92803 77395
L92803 76805
L92746 76889
L92690 76946
L92634 76974
" />
</g>
<g style="fill:#000000; fill-opacity:0.0; 
stroke:#000000; stroke-width:39.3701; stroke-opacity:1; 
stroke-linecap:round; stroke-linejoin:round;">
</g>
<g style="fill:#000000; fill-opacity:0.0; 
stroke:#000000; stroke-width:59.0551; stroke-opacity:1; 
stroke-linecap:round; stroke-linejoin:round;">
<path d="M69685 75396
L112205 75396
" />
</g>
<g style="fill:#000000; fill-opacity:0.0; 
stroke:#000000; stroke-width:39.3701; stroke-opacity:1; 
stroke-linecap:round; stroke-linejoin:round;">
</g>
<g style="fill:#000000; fill-opacity:0.0; 
stroke:#000000; stroke-width:118.11; stroke-opacity:1; 
stroke-linecap:round; stroke-linejoin:round;">
<path d="M104099 76293
L103902 76012
" />
<path d="M103761 76293
L103761 75703
L103986 75703
L104042 75731
L104070 75759
L104099 75815
L104099 75899
L104070 75956
L104042 75984
L103986 76012
L103761 76012
" />
<path d="M104577 76265
L104520 76293
L104408 76293
L104352 76265
L104323 76209
L104323 75984
L104352 75928
L104408 75899
L104520 75899
L104577 75928
L104605 75984
L104605 76040
L104323 76096
" />
<path d="M104802 75899
L104942 76293
L105083 75899
" />
<path d="M105308 76237
L105336 76265
L105308 76293
L105280 76265
L105308 76237
L105308 76293
" />
<path d="M105308 75928
L105336 75956
L105308 75984
L105280 75956
L105308 75928
L105308 75984
" />
</g>
<g style="fill:#000000; fill-opacity:0.0; 
stroke:#000000; stroke-width:39.3701; stroke-opacity:1; 
stroke-linecap:round; stroke-linejoin:round;">
</g>
<g style="fill:#000000; fill-opacity:0.0; 
stroke:#000000; stroke-width:59.0551; stroke-opacity:1; 
stroke-linecap:round; stroke-linejoin:round;">
<path d="M70221 76265
L70305 76293
L70446 76293
L70502 76265
L70530 76237
L70559 76181
L70559 76124
L70530 76068
L70502 76040
L70446 76012
L70334 75984
L70277 75956
L70249 75928
L70221 75871
L70221 75815
L70249 75759
L70277 75731
L70334 75703
L70474 75703
L70559 75731
" />
<path d="M70812 76293
L70812 75899
" />
<path d="M70812 75703
L70784 75731
L70812 75759
L70840 75731
L70812 75703
L70812 75759
" />
<path d="M71037 75899
L71346 75899
L71037 76293
L71346 76293
" />
<path d="M71796 76265
L71740 76293
L71627 76293
L71571 76265
L71543 76209
L71543 75984
L71571 75928
L71627 75899
L71740 75899
L71796 75928
L71824 75984
L71824 76040
L71543 76096
" />
<path d="M72077 76237
L72105 76265
L72077 76293
L72049 76265
L72077 76237
L72077 76293
" />
<path d="M72077 75928
L72105 75956
L72077 75984
L72049 75956
L72077 75928
L72077 75984
" />
<path d="M72780 76124
L73061 76124
" />
<path d="M72724 76293
L72921 75703
L73118 76293
" />
<path d="M73568 75899
L73568 76293
" />
<path d="M73427 75674
L73286 76096
L73652 76096
" />
</g>
<g style="fill:#000000; fill-opacity:0.0; 
stroke:#000000; stroke-width:39.3701; stroke-opacity:1; 
stroke-linecap:round; stroke-linejoin:round;">
</g>
<g style="fill:#000000; fill-opacity:0.0; 
stroke:#000000; stroke-width:59.0551; stroke-opacity:1; 
stroke-linecap:round; stroke-linejoin:round;">
<path d="M103714 77395
L103714 76805
" />
<path d="M104248 77395
L104248 76805
" />
<path d="M104248 77367
L104192 77395
L104079 77395
L104023 77367
L103995 77339
L103967 77283
L103967 77114
L103995 77058
L104023 77030
L104079 77002
L104192 77002
L104248 77030
" />
<path d="M104529 77339
L104557 77367
L104529 77395
L104501 77367
L104529 77339
L104529 77395
" />
<path d="M104529 77030
L104557 77058
L104529 77086
L104501 77058
L104529 77030
L104529 77086
" />
<path d="M105570 77395
L105232 77395
" />
<path d="M105401 77395
L105401 76805
L105345 76889
L105289 76946
L105232 76974
" />
<path d="M106245 76777
L105739 77536
" />
<path d="M106751 77395
L106413 77395
" />
<path d="M106582 77395
L106582 76805
L106526 76889
L106470 76946
L106413 76974
" />
</g>
<g style="fill:#000000; fill-opacity:0.0; 
stroke:#000000; stroke-width:39.3701; stroke-opacity:1; 
stroke-linecap:round; stroke-linejoin:round;">
</g>
<g style="fill:#000000; fill-opacity:0.0; 
stroke:#000000; stroke-width:59.0551; stroke-opacity:1; 
stroke-linecap:round; stroke-linejoin:round;">
<path d="M69685 73821
L112205 73821
" />
</g>
<g style="fill:#000000; fill-opacity:0.0; 
stroke:#000000; stroke-width:39.3701; stroke-opacity:1; 
stroke-linecap:round; stroke-linejoin:round;">
</g>
<g style="fill:#000000; fill-opacity:0.0; 
stroke:#000000; stroke-width:157.48; stroke-opacity:1; 
stroke-linecap:round; stroke-linejoin:round;">
<path d="M70360 74099
L70810 74099
" />
<path d="M70486 74886
L70585 74099
" />
<path d="M70974 74886
L71039 74361
" />
<path d="M71072 74099
L71030 74136
L71063 74174
L71105 74136
L71072 74099
L71063 74174
" />
<path d="M71302 74361
L71602 74361
" />
<path d="M71447 74099
L71363 74774
L71391 74849
L71461 74886
L71536 74886
" />
<path d="M71911 74886
L71841 74849
L71813 74774
L71897 74099
" />
<path d="M72516 74849
L72436 74886
L72286 74886
L72216 74849
L72187 74774
L72225 74474
L72272 74399
L72352 74361
L72501 74361
L72572 74399
L72600 74474
L72591 74549
L72206 74624
" />
<path d="M72895 74811
L72928 74849
L72886 74886
L72853 74849
L72895 74811
L72886 74886
" />
<path d="M72947 74399
L72980 74436
L72937 74474
L72905 74436
L72947 74399
L72937 74474
" />
</g>
<g style="fill:#000000; fill-opacity:0.0; 
stroke:#000000; stroke-width:39.3701; stroke-opacity:1; 
stroke-linecap:round; stroke-linejoin:round;">
</g>
<g style="fill:#000000; fill-opacity:0.0; 
stroke:#000000; stroke-width:59.0551; stroke-opacity:1; 
stroke-linecap:round; stroke-linejoin:round;">
<path d="M70446 73070
L70249 73070
" />
<path d="M70249 73380
L70249 72789
L70530 72789
" />
<path d="M70755 73380
L70755 72986
" />
<path d="M70755 72789
L70727 72817
L70755 72845
L70784 72817
L70755 72789
L70755 72845
" />
<path d="M71121 73380
L71065 73352
L71037 73295
L71037 72789
" />
<path d="M71571 73352
L71515 73380
L71402 73380
L71346 73352
L71318 73295
L71318 73070
L71346 73014
L71402 72986
L71515 72986
L71571 73014
L71599 73070
L71599 73127
L71318 73183
" />
<path d="M71852 73323
L71880 73352
L71852 73380
L71824 73352
L71852 73323
L71852 73380
" />
<path d="M71852 73014
L71880 73042
L71852 73070
L71824 73042
L71852 73014
L71852 73070
" />
<path d="M72583 73070
L72780 73070
" />
<path d="M72865 73380
L72583 73380
L72583 72789
L72865 72789
" />
<path d="M73090 73352
L73174 73380
L73314 73380
L73371 73352
L73399 73323
L73427 73267
L73427 73211
L73399 73155
L73371 73127
L73314 73099
L73202 73070
L73146 73042
L73118 73014
L73090 72958
L73090 72902
L73118 72845
L73146 72817
L73202 72789
L73343 72789
L73427 72817
" />
<path d="M73680 73380
L73680 72789
L73905 72789
L73961 72817
L73989 72845
L74018 72902
L74018 72986
L73989 73042
L73961 73070
L73905 73099
L73680 73099
" />
<path d="M74130 73436
L74580 73436
" />
<path d="M75002 73380
L74721 73380
L74721 72789
" />
<path d="M75311 72789
L75424 72789
L75480 72817
L75536 72874
L75564 72986
L75564 73183
L75536 73295
L75480 73352
L75424 73380
L75311 73380
L75255 73352
L75199 73295
L75171 73183
L75171 72986
L75199 72874
L75255 72817
L75311 72789
" />
<path d="M76127 72817
L76070 72789
L75986 72789
L75902 72817
L75845 72874
L75817 72930
L75789 73042
L75789 73127
L75817 73239
L75845 73295
L75902 73352
L75986 73380
L76042 73380
L76127 73352
L76155 73323
L76155 73127
L76042 73127
" />
<path d="M76717 72817
L76661 72789
L76577 72789
L76492 72817
L76436 72874
L76408 72930
L76380 73042
L76380 73127
L76408 73239
L76436 73295
L76492 73352
L76577 73380
L76633 73380
L76717 73352
L76745 73323
L76745 73127
L76633 73127
" />
<path d="M76998 73070
L77195 73070
" />
<path d="M77280 73380
L76998 73380
L76998 72789
L77280 72789
" />
<path d="M77870 73380
L77673 73099
" />
<path d="M77533 73380
L77533 72789
L77758 72789
L77814 72817
L77842 72845
L77870 72902
L77870 72986
L77842 73042
L77814 73070
L77758 73099
L77533 73099
" />
<path d="M78123 73323
L78151 73352
L78123 73380
L78095 73352
L78123 73323
L78123 73380
" />
<path d="M78404 73380
L78404 72789
" />
<path d="M78461 73155
L78629 73380
" />
<path d="M78629 72986
L78404 73211
" />
<path d="M78883 73380
L78883 72986
" />
<path d="M78883 72789
L78854 72817
L78883 72845
L78911 72817
L78883 72789
L78883 72845
" />
<path d="M79417 73352
L79361 73380
L79248 73380
L79192 73352
L79164 73323
L79136 73267
L79136 73099
L79164 73042
L79192 73014
L79248 72986
L79361 72986
L79417 73014
" />
<path d="M79923 73380
L79923 73070
L79895 73014
L79839 72986
L79726 72986
L79670 73014
" />
<path d="M79923 73352
L79867 73380
L79726 73380
L79670 73352
L79642 73295
L79642 73239
L79670 73183
L79726 73155
L79867 73155
L79923 73127
" />
<path d="M80457 73380
L80457 72789
" />
<path d="M80457 73352
L80401 73380
L80289 73380
L80232 73352
L80204 73323
L80176 73267
L80176 73099
L80204 73042
L80232 73014
L80289 72986
L80401 72986
L80457 73014
" />
<path d="M80598 73436
L81048 73436
" />
<path d="M81188 72986
L81188 73577
" />
<path d="M81188 73014
L81245 72986
L81357 72986
L81413 73014
L81442 73042
L81470 73099
L81470 73267
L81442 73323
L81413 73352
L81357 73380
L81245 73380
L81188 73352
" />
<path d="M81976 73352
L81920 73380
L81807 73380
L81751 73352
L81723 73323
L81695 73267
L81695 73099
L81723 73042
L81751 73014
L81807 72986
L81920 72986
L81976 73014
" />
<path d="M82229 73380
L82229 72789
" />
<path d="M82229 73014
L82285 72986
L82398 72986
L82454 73014
L82482 73042
L82510 73099
L82510 73267
L82482 73323
L82454 73352
L82398 73380
L82285 73380
L82229 73352
" />
</g>
<g style="fill:#000000; fill-opacity:0.0; 
stroke:#000000; stroke-width:39.3701; stroke-opacity:1; 
stroke-linecap:round; stroke-linejoin:round;">
</g>
<g style="fill:#000000; fill-opacity:0.0; 
stroke:#000000; stroke-width:59.0551; stroke-opacity:1; 
stroke-linecap:round; stroke-linejoin:round;">
<path d="M69685 71459
L112205 71459
" />
</g>
<g style="fill:#000000; fill-opacity:0.0; 
stroke:#000000; stroke-width:39.3701; stroke-opacity:1; 
stroke-linecap:round; stroke-linejoin:round;">
</g>
<g style="fill:#000000; fill-opacity:0.0; 
stroke:#000000; stroke-width:59.0551; stroke-opacity:1; 
stroke-linecap:round; stroke-linejoin:round;">
<path d="M70221 72289
L70305 72317
L70446 72317
L70502 72289
L70530 72260
L70559 72204
L70559 72148
L70530 72092
L70502 72064
L70446 72036
L70334 72007
L70277 71979
L70249 71951
L70221 71895
L70221 71839
L70249 71782
L70277 71754
L70334 71726
L70474 71726
L70559 71754
" />
<path d="M70812 72317
L70812 71726
" />
<path d="M71065 72317
L71065 72007
L71037 71951
L70980 71923
L70896 71923
L70840 71951
L70812 71979
" />
<path d="M71571 72289
L71515 72317
L71402 72317
L71346 72289
L71318 72232
L71318 72007
L71346 71951
L71402 71923
L71515 71923
L71571 71951
L71599 72007
L71599 72064
L71318 72120
" />
<path d="M72077 72289
L72021 72317
L71908 72317
L71852 72289
L71824 72232
L71824 72007
L71852 71951
L71908 71923
L72021 71923
L72077 71951
L72105 72007
L72105 72064
L71824 72120
" />
<path d="M72274 71923
L72499 71923
" />
<path d="M72358 71726
L72358 72232
L72386 72289
L72443 72317
L72499 72317
" />
<path d="M72696 72260
L72724 72289
L72696 72317
L72668 72289
L72696 72260
L72696 72317
" />
<path d="M72696 71951
L72724 71979
L72696 72007
L72668 71979
L72696 71951
L72696 72007
" />
</g>
<g style="fill:#000000; fill-opacity:0.0; 
stroke:#000000; stroke-width:39.3701; stroke-opacity:1; 
stroke-linecap:round; stroke-linejoin:round;">
</g>
<g style="fill:#000000; fill-opacity:0.0; 
stroke:#000000; stroke-width:59.0551; stroke-opacity:1; 
stroke-linecap:round; stroke-linejoin:round;">
<path d="M77559 75396
L77559 76577
" />
</g>
<g style="fill:#000000; fill-opacity:0.0; 
stroke:#000000; stroke-width:39.3701; stroke-opacity:1; 
stroke-linecap:round; stroke-linejoin:round;">
</g>
<g style="fill:#000000; fill-opacity:0.0; 
stroke:#000000; stroke-width:59.0551; stroke-opacity:1; 
stroke-linecap:round; stroke-linejoin:round;">
<path d="M102756 75396
L102756 77955
" />
</g>
<g style="fill:#848400; fill-opacity:0.0; 
stroke:#848400; stroke-width:59.0551; stroke-opacity:1; 
stroke-linecap:round; stroke-linejoin:round;">
</g>
<g style="fill:#848400; fill-opacity:0.0; 
stroke:#848400; stroke-width:0; stroke-opacity:1; 
stroke-linecap:round; stroke-linejoin:round;">
</g>
<g style="fill:#848400; fill-opacity:1.0; 
stroke:#848400; stroke-width:0; stroke-opacity:1; 
stroke-linecap:round; stroke-linejoin:round;">
<polyline style="fill-rule:evenodd;"
points="47334,21665
47334,22334
46665,22334
46665,21665
47334,21665
" /> 
</g>
<g style="fill:#848400; fill-opacity:1.0; 
stroke:#848400; stroke-width:669.291; stroke-opacity:1; 
stroke-linecap:round; stroke-linejoin:round;">
</g>
<g style="fill:#848400; fill-opacity:0.0; 
stroke:#848400; stroke-width:669.291; stroke-opacity:1; 
stroke-linecap:round; stroke-linejoin:round;">
<path d="M47000 23000
L47000 23000
" />
<path d="M47000 24000
L47000 24000
" />
<path d="M47000 25000
L47000 25000
" />
<path d="M47000 26000
L47000 26000
" />
<path d="M47000 27000
L47000 27000
" />
<path d="M47000 28000
L47000 28000
" />
<path d="M47000 29000
L47000 29000
" />
<path d="M59500 23000
L59500 23000
" />
</g>
<g style="fill:#848400; fill-opacity:0.0; 
stroke:#848400; stroke-width:0; stroke-opacity:1; 
stroke-linecap:round; stroke-linejoin:round;">
</g>
<g style="fill:#848400; fill-opacity:1.0; 
stroke:#848400; stroke-width:0; stroke-opacity:1; 
stroke-linecap:round; stroke-linejoin:round;">
<polyline style="fill-rule:evenodd;"
points="59834,21665
59834,22334
59165,22334
59165,21665
59834,21665
" /> 
</g>
<g style="fill:#848400; fill-opacity:1.0; 
stroke:#848400; stroke-width:669.291; stroke-opacity:1; 
stroke-linecap:round; stroke-linejoin:round;">
</g>
<g style="fill:#848400; fill-opacity:0.0; 
stroke:#848400; stroke-width:669.291; stroke-opacity:1; 
stroke-linecap:round; stroke-linejoin:round;">
<path d="M57500 17500
L57500 17500
" />
</g>
<g style="fill:#848400; fill-opacity:0.0; 
stroke:#848400; stroke-width:0; stroke-opacity:1; 
stroke-linecap:round; stroke-linejoin:round;">
</g>
<g style="fill:#848400; fill-opacity:1.0; 
stroke:#848400; stroke-width:0; stroke-opacity:1; 
stroke-linecap:round; stroke-linejoin:round;">
<polyline style="fill-rule:evenodd;"
points="56165,17165
56834,17165
56834,17834
56165,17834
56165,17165
" /> 
<polyline style="fill-rule:evenodd;"
points="51665,17165
52334,17165
52334,17834
51665,17834
51665,17165
" /> 
</g>
<g style="fill:#848400; fill-opacity:1.0; 
stroke:#848400; stroke-width:669.291; stroke-opacity:1; 
stroke-linecap:round; stroke-linejoin:round;">
</g>
<g style="fill:#848400; fill-opacity:0.0; 
stroke:#848400; stroke-width:669.291; stroke-opacity:1; 
stroke-linecap:round; stroke-linejoin:round;">
<path d="M53000 17500
L53000 17500
" />
</g>
<g style="fill:#008400; fill-opacity:0.0; 
stroke:#008400; stroke-width:669.291; stroke-opacity:1; 
stroke-linecap:round; stroke-linejoin:round;">
</g>
<g style="fill:#008400; fill-opacity:0.0; 
stroke:#008400; stroke-width:0; stroke-opacity:1; 
stroke-linecap:round; stroke-linejoin:round;">
</g>
<g style="fill:#008400; fill-opacity:1.0; 
stroke:#008400; stroke-width:0; stroke-opacity:1; 
stroke-linecap:round; stroke-linejoin:round;">
<polyline style="fill-rule:evenodd;"
points="57186,22677
57196,22679
57205,22681
57214,22684
57223,22688
57231,22693
57239,22699
57246,22705
57253,22713
57259,22720
57263,22729
57268,22737
57271,22747
57273,22756
57275,22765
57275,22775
57275,23031
57275,23041
57273,23050
57271,23060
57268,23069
57263,23077
57259,23086
57253,23093
57246,23101
57239,23107
57231,23113
57223,23118
57214,23122
57205,23125
57196,23128
57186,23129
57177,23129
56822,23129
56813,23129
56803,23128
56794,23125
56785,23122
56776,23118
56768,23113
56760,23107
56753,23101
56746,23093
56740,23086
56736,23077
56731,23069
56728,23060
56726,23050
56724,23041
56724,23031
56724,22775
56724,22765
56726,22756
56728,22747
56731,22737
56736,22729
56740,22720
56746,22713
56753,22705
56760,22699
56768,22693
56776,22688
56785,22684
56794,22681
56803,22679
56813,22677
56822,22677
57177,22677
57186,22677
" /> 
<polyline style="fill-rule:evenodd;"
points="57186,21870
57196,21871
57205,21874
57214,21877
57223,21881
57231,21886
57239,21892
57246,21898
57253,21906
57259,21913
57263,21922
57268,21930
57271,21939
57273,21949
57275,21958
57275,21968
57275,22224
57275,22234
57273,22243
57271,22252
57268,22262
57263,22270
57259,22279
57253,22286
57246,22294
57239,22300
57231,22306
57223,22311
57214,22315
57205,22318
57196,22320
57186,22322
57177,22322
56822,22322
56813,22322
56803,22320
56794,22318
56785,22315
56776,22311
56768,22306
56760,22300
56753,22294
56746,22286
56740,22279
56736,22270
56731,22262
56728,22252
56726,22243
56724,22234
56724,22224
56724,21968
56724,21958
56726,21949
56728,21939
56731,21930
56736,21922
56740,21913
56746,21906
56753,21898
56760,21892
56768,21886
56776,21881
56785,21877
56794,21874
56803,21871
56813,21870
56822,21870
57177,21870
57186,21870
" /> 
<polyline style="fill-rule:evenodd;"
points="58186,21870
58196,21871
58205,21874
58214,21877
58223,21881
58231,21886
58239,21892
58246,21898
58253,21906
58259,21913
58263,21922
58268,21930
58271,21939
58273,21949
58275,21958
58275,21968
58275,22224
58275,22234
58273,22243
58271,22252
58268,22262
58263,22270
58259,22279
58253,22286
58246,22294
58239,22300
58231,22306
58223,22311
58214,22315
58205,22318
58196,22320
58186,22322
58177,22322
57822,22322
57813,22322
57803,22320
57794,22318
57785,22315
57776,22311
57768,22306
57760,22300
57753,22294
57746,22286
57740,22279
57736,22270
57731,22262
57728,22252
57726,22243
57724,22234
57724,22224
57724,21968
57724,21958
57726,21949
57728,21939
57731,21930
57736,21922
57740,21913
57746,21906
57753,21898
57760,21892
57768,21886
57776,21881
57785,21877
57794,21874
57803,21871
57813,21870
57822,21870
58177,21870
58186,21870
" /> 
<polyline style="fill-rule:evenodd;"
points="58186,22677
58196,22679
58205,22681
58214,22684
58223,22688
58231,22693
58239,22699
58246,22705
58253,22713
58259,22720
58263,22729
58268,22737
58271,22747
58273,22756
58275,22765
58275,22775
58275,23031
58275,23041
58273,23050
58271,23060
58268,23069
58263,23077
58259,23086
58253,23093
58246,23101
58239,23107
58231,23113
58223,23118
58214,23122
58205,23125
58196,23128
58186,23129
58177,23129
57822,23129
57813,23129
57803,23128
57794,23125
57785,23122
57776,23118
57768,23113
57760,23107
57753,23101
57746,23093
57740,23086
57736,23077
57731,23069
57728,23060
57726,23050
57724,23041
57724,23031
57724,22775
57724,22765
57726,22756
57728,22747
57731,22737
57736,22729
57740,22720
57746,22713
57753,22705
57760,22699
57768,22693
57776,22688
57785,22684
57794,22681
57803,22679
57813,22677
57822,22677
58177,22677
58186,22677
" /> 
<polyline style="fill-rule:evenodd;"
points="56330,14974
56340,14976
56349,14978
56358,14981
56367,14986
56375,14990
56383,14996
56390,15003
56396,15010
56402,15018
56407,15026
56411,15035
56415,15044
56417,15053
56418,15063
56419,15072
56419,15427
56418,15436
56417,15446
56415,15455
56411,15464
56407,15473
56402,15481
56396,15489
56390,15496
56383,15503
56375,15509
56367,15513
56358,15518
56349,15521
56340,15523
56330,15525
56320,15525
56064,15525
56055,15525
56045,15523
56036,15521
56027,15518
56018,15513
56010,15509
56002,15503
55995,15496
55988,15489
55983,15481
55978,15473
55974,15464
55970,15455
55968,15446
55967,15436
55966,15427
55966,15072
55967,15063
55968,15053
55970,15044
55974,15035
55978,15026
55983,15018
55988,15010
55995,15003
56002,14996
56010,14990
56018,14986
56027,14981
56036,14978
56045,14976
56055,14974
56064,14974
56320,14974
56330,14974
" /> 
<polyline style="fill-rule:evenodd;"
points="57137,14974
57147,14976
57156,14978
57165,14981
57174,14986
57182,14990
57190,14996
57197,15003
57204,15010
57209,15018
57214,15026
57218,15035
57222,15044
57224,15053
57225,15063
57226,15072
57226,15427
57225,15436
57224,15446
57222,15455
57218,15464
57214,15473
57209,15481
57204,15489
57197,15496
57190,15503
57182,15509
57174,15513
57165,15518
57156,15521
57147,15523
57137,15525
57127,15525
56872,15525
56862,15525
56852,15523
56843,15521
56834,15518
56825,15513
56817,15509
56809,15503
56802,15496
56795,15489
56790,15481
56785,15473
56781,15464
56777,15455
56775,15446
56774,15436
56773,15427
56773,15072
56774,15063
56775,15053
56777,15044
56781,15035
56785,15026
56790,15018
56795,15010
56802,15003
56809,14996
56817,14990
56825,14986
56834,14981
56843,14978
56852,14976
56862,14974
56872,14974
57127,14974
57137,14974
" /> 
<polyline style="fill-rule:evenodd;"
points="59734,14974
59743,14976
59752,14978
59762,14981
59770,14986
59779,14990
59786,14996
59794,15003
59800,15010
59806,15018
59811,15026
59815,15035
59818,15044
59820,15053
59822,15063
59822,15072
59822,15427
59822,15436
59820,15446
59818,15455
59815,15464
59811,15473
59806,15481
59800,15489
59794,15496
59786,15503
59779,15509
59770,15513
59762,15518
59752,15521
59743,15523
59734,15525
59724,15525
59468,15525
59458,15525
59449,15523
59439,15521
59430,15518
59422,15513
59413,15509
59406,15503
59398,15496
59392,15489
59386,15481
59381,15473
59377,15464
59374,15455
59371,15446
59370,15436
59370,15427
59370,15072
59370,15063
59371,15053
59374,15044
59377,15035
59381,15026
59386,15018
59392,15010
59398,15003
59406,14996
59413,14990
59422,14986
59430,14981
59439,14978
59449,14976
59458,14974
59468,14974
59724,14974
59734,14974
" /> 
<polyline style="fill-rule:evenodd;"
points="60541,14974
60550,14976
60560,14978
60569,14981
60577,14986
60586,14990
60593,14996
60601,15003
60607,15010
60613,15018
60618,15026
60622,15035
60625,15044
60628,15053
60629,15063
60629,15072
60629,15427
60629,15436
60628,15446
60625,15455
60622,15464
60618,15473
60613,15481
60607,15489
60601,15496
60593,15503
60586,15509
60577,15513
60569,15518
60560,15521
60550,15523
60541,15525
60531,15525
60275,15525
60265,15525
60256,15523
60247,15521
60237,15518
60229,15513
60220,15509
60213,15503
60205,15496
60199,15489
60193,15481
60188,15473
60184,15464
60181,15455
60179,15446
60177,15436
60177,15427
60177,15072
60177,15063
60179,15053
60181,15044
60184,15035
60188,15026
60193,15018
60199,15010
60205,15003
60213,14996
60220,14990
60229,14986
60237,14981
60247,14978
60256,14976
60265,14974
60275,14974
60531,14974
60541,14974
" /> 
</g>
<g style="fill:#848400; fill-opacity:1.0; 
stroke:#848400; stroke-width:0; stroke-opacity:1; 
stroke-linecap:round; stroke-linejoin:round;">
<polyline style="fill-rule:evenodd;"
points="59645,24645
60354,24645
60354,25354
59645,25354
59645,24645
" /> 
<circle cx="60000" cy="26000" r="354.331" /> 
</g>
<g style="fill:#848400; fill-opacity:1.0; 
stroke:#848400; stroke-width:39.3701; stroke-opacity:1; 
stroke-linecap:round; stroke-linejoin:round;">
</g>
<g style="fill:#848400; fill-opacity:1.0; 
stroke:#848400; stroke-width:0; stroke-opacity:1; 
stroke-linecap:round; stroke-linejoin:round;">
<polyline style="fill-rule:evenodd;"
points="51086,13244
51094,13245
51101,13247
51108,13250
51115,13253
51122,13257
51128,13261
51134,13267
51139,13272
51144,13279
51148,13285
51151,13292
51154,13299
51155,13307
51157,13315
51157,13322
51157,13677
51157,13684
51155,13692
51154,13700
51151,13707
51148,13714
51144,13720
51139,13727
51134,13732
51128,13738
51122,13742
51115,13746
51108,13749
51101,13752
51094,13754
51086,13755
51078,13755
50921,13755
50913,13755
50905,13754
50898,13752
50891,13749
50884,13746
50877,13742
50871,13738
50865,13732
50860,13727
50855,13720
50851,13714
50848,13707
50845,13700
50844,13692
50842,13684
50842,13677
50842,13322
50842,13315
50844,13307
50845,13299
50848,13292
50851,13285
50855,13279
50860,13272
50865,13267
50871,13261
50877,13257
50884,13253
50891,13250
50898,13247
50905,13245
50913,13244
50921,13244
51078,13244
51086,13244
" /> 
</g>
<g style="fill:#848400; fill-opacity:1.0; 
stroke:#848400; stroke-width:314.961; stroke-opacity:1; 
stroke-linecap:round; stroke-linejoin:round;">
</g>
<g style="fill:#848400; fill-opacity:0.0; 
stroke:#848400; stroke-width:314.961; stroke-opacity:1; 
stroke-linecap:round; stroke-linejoin:round;">
<path d="M51492 13401
L51492 13598
" />
</g>
<g style="fill:#848400; fill-opacity:0.0; 
stroke:#848400; stroke-width:0; stroke-opacity:1; 
stroke-linecap:round; stroke-linejoin:round;">
</g>
<g style="fill:#848400; fill-opacity:1.0; 
stroke:#848400; stroke-width:0; stroke-opacity:1; 
stroke-linecap:round; stroke-linejoin:round;">
<polyline style="fill-rule:evenodd;"
points="53334,16334
52665,16334
52665,15665
53334,15665
53334,16334
" /> 
</g>
<g style="fill:#848400; fill-opacity:1.0; 
stroke:#848400; stroke-width:669.291; stroke-opacity:1; 
stroke-linecap:round; stroke-linejoin:round;">
</g>
<g style="fill:#848400; fill-opacity:0.0; 
stroke:#848400; stroke-width:669.291; stroke-opacity:1; 
stroke-linecap:round; stroke-linejoin:round;">
<path d="M52000 16000
L52000 16000
" />
<path d="M51000 16000
L51000 16000
" />
<path d="M50000 16000
L50000 16000
" />
<path d="M49000 16000
L49000 16000
" />
</g>
<g style="fill:#848400; fill-opacity:0.0; 
stroke:#848400; stroke-width:0; stroke-opacity:1; 
stroke-linecap:round; stroke-linejoin:round;">
</g>
<g style="fill:#848400; fill-opacity:1.0; 
stroke:#848400; stroke-width:0; stroke-opacity:1; 
stroke-linecap:round; stroke-linejoin:round;">
<polyline style="fill-rule:evenodd;"
points="49665,27665
50334,27665
50334,28334
49665,28334
49665,27665
" /> 
</g>
<g style="fill:#848400; fill-opacity:1.0; 
stroke:#848400; stroke-width:669.291; stroke-opacity:1; 
stroke-linecap:round; stroke-linejoin:round;">
</g>
<g style="fill:#848400; fill-opacity:0.0; 
stroke:#848400; stroke-width:669.291; stroke-opacity:1; 
stroke-linecap:round; stroke-linejoin:round;">
<path d="M51000 28000
L51000 28000
" />
<path d="M52000 28000
L52000 28000
" />
<path d="M53000 28000
L53000 28000
" />
<path d="M54000 28000
L54000 28000
" />
<path d="M55000 28000
L55000 28000
" />
<path d="M56000 28000
L56000 28000
" />
<path d="M57000 28000
L57000 28000
" />
</g>
<g style="fill:#848400; fill-opacity:0.0; 
stroke:#848400; stroke-width:0; stroke-opacity:1; 
stroke-linecap:round; stroke-linejoin:round;">
</g>
<g style="fill:#848400; fill-opacity:1.0; 
stroke:#848400; stroke-width:0; stroke-opacity:1; 
stroke-linecap:round; stroke-linejoin:round;">
<polyline style="fill-rule:evenodd;"
points="46665,16334
46665,15665
47334,15665
47334,16334
46665,16334
" /> 
</g>
<g style="fill:#848400; fill-opacity:1.0; 
stroke:#848400; stroke-width:669.291; stroke-opacity:1; 
stroke-linecap:round; stroke-linejoin:round;">
</g>
<g style="fill:#848400; fill-opacity:0.0; 
stroke:#848400; stroke-width:669.291; stroke-opacity:1; 
stroke-linecap:round; stroke-linejoin:round;">
<path d="M47000 15000
L47000 15000
" />
<path d="M47000 14000
L47000 14000
" />
<path d="M47000 13000
L47000 13000
" />
</g>
<g style="fill:#848400; fill-opacity:1.0; 
stroke:#848400; stroke-width:0; stroke-opacity:1; 
stroke-linecap:round; stroke-linejoin:round;">
<circle cx="56000" cy="25500" r="314.961" /> 
</g>
<g style="fill:#848400; fill-opacity:1.0; 
stroke:#848400; stroke-width:39.3701; stroke-opacity:1; 
stroke-linecap:round; stroke-linejoin:round;">
</g>
<g style="fill:#848400; fill-opacity:1.0; 
stroke:#848400; stroke-width:629.921; stroke-opacity:1; 
stroke-linecap:round; stroke-linejoin:round;">
</g>
<g style="fill:#848400; fill-opacity:0.0; 
stroke:#848400; stroke-width:629.921; stroke-opacity:1; 
stroke-linecap:round; stroke-linejoin:round;">
<path d="M52000 25500
L52000 25500
" />
</g>
<g style="fill:#848400; fill-opacity:1.0; 
stroke:#848400; stroke-width:0; stroke-opacity:1; 
stroke-linecap:round; stroke-linejoin:round;">
<circle cx="53250" cy="11500" r="314.961" /> 
</g>
<g style="fill:#848400; fill-opacity:1.0; 
stroke:#848400; stroke-width:39.3701; stroke-opacity:1; 
stroke-linecap:round; stroke-linejoin:round;">
</g>
<g style="fill:#848400; fill-opacity:1.0; 
stroke:#848400; stroke-width:629.921; stroke-opacity:1; 
stroke-linecap:round; stroke-linejoin:round;">
</g>
<g style="fill:#848400; fill-opacity:0.0; 
stroke:#848400; stroke-width:629.921; stroke-opacity:1; 
stroke-linecap:round; stroke-linejoin:round;">
<path d="M49250 11500
L49250 11500
" />
<path d="M61500 19250
L61500 19250
" />
</g>
<g style="fill:#848400; fill-opacity:1.0; 
stroke:#848400; stroke-width:0; stroke-opacity:1; 
stroke-linecap:round; stroke-linejoin:round;">
<circle cx="57500" cy="19250" r="314.961" /> 
</g>
<g style="fill:#848400; fill-opacity:1.0; 
stroke:#848400; stroke-width:39.3701; stroke-opacity:1; 
stroke-linecap:round; stroke-linejoin:round;">
</g>
<g style="fill:#848400; fill-opacity:1.0; 
stroke:#848400; stroke-width:629.921; stroke-opacity:1; 
stroke-linecap:round; stroke-linejoin:round;">
</g>
<g style="fill:#848400; fill-opacity:0.0; 
stroke:#848400; stroke-width:629.921; stroke-opacity:1; 
stroke-linecap:round; stroke-linejoin:round;">
<path d="M54500 29500
L54500 29500
" />
</g>
<g style="fill:#848400; fill-opacity:1.0; 
stroke:#848400; stroke-width:0; stroke-opacity:1; 
stroke-linecap:round; stroke-linejoin:round;">
<circle cx="58500" cy="29500" r="314.961" /> 
</g>
<g style="fill:#848400; fill-opacity:1.0; 
stroke:#848400; stroke-width:39.3701; stroke-opacity:1; 
stroke-linecap:round; stroke-linejoin:round;">
</g>
<g style="fill:#848400; fill-opacity:1.0; 
stroke:#848400; stroke-width:0; stroke-opacity:1; 
stroke-linecap:round; stroke-linejoin:round;">
<circle cx="55728.3" cy="11500" r="393.701" /> 
</g>
<g style="fill:#848400; fill-opacity:1.0; 
stroke:#848400; stroke-width:39.3701; stroke-opacity:1; 
stroke-linecap:round; stroke-linejoin:round;">
</g>
<g style="fill:#848400; fill-opacity:1.0; 
stroke:#848400; stroke-width:0; stroke-opacity:1; 
stroke-linecap:round; stroke-linejoin:round;">
<circle cx="57500" cy="11500" r="393.701" /> 
</g>
<g style="fill:#848400; fill-opacity:1.0; 
stroke:#848400; stroke-width:39.3701; stroke-opacity:1; 
stroke-linecap:round; stroke-linejoin:round;">
</g>
<g style="fill:#848400; fill-opacity:1.0; 
stroke:#848400; stroke-width:0; stroke-opacity:1; 
stroke-linecap:round; stroke-linejoin:round;">
<circle cx="55728.3" cy="14059.1" r="393.701" /> 
</g>
<g style="fill:#848400; fill-opacity:1.0; 
stroke:#848400; stroke-width:39.3701; stroke-opacity:1; 
stroke-linecap:round; stroke-linejoin:round;">
</g>
<g style="fill:#848400; fill-opacity:1.0; 
stroke:#848400; stroke-width:0; stroke-opacity:1; 
stroke-linecap:round; stroke-linejoin:round;">
<circle cx="57500" cy="14059.1" r="393.701" /> 
</g>
<g style="fill:#848400; fill-opacity:1.0; 
stroke:#848400; stroke-width:39.3701; stroke-opacity:1; 
stroke-linecap:round; stroke-linejoin:round;">
</g>
<g style="fill:#848400; fill-opacity:1.0; 
stroke:#848400; stroke-width:0; stroke-opacity:1; 
stroke-linecap:round; stroke-linejoin:round;">
<circle cx="59000" cy="11440.9" r="393.701" /> 
</g>
<g style="fill:#848400; fill-opacity:1.0; 
stroke:#848400; stroke-width:39.3701; stroke-opacity:1; 
stroke-linecap:round; stroke-linejoin:round;">
</g>
<g style="fill:#848400; fill-opacity:1.0; 
stroke:#848400; stroke-width:0; stroke-opacity:1; 
stroke-linecap:round; stroke-linejoin:round;">
<circle cx="60771.7" cy="11440.9" r="393.701" /> 
</g>
<g style="fill:#848400; fill-opacity:1.0; 
stroke:#848400; stroke-width:39.3701; stroke-opacity:1; 
stroke-linecap:round; stroke-linejoin:round;">
</g>
<g style="fill:#848400; fill-opacity:1.0; 
stroke:#848400; stroke-width:0; stroke-opacity:1; 
stroke-linecap:round; stroke-linejoin:round;">
<circle cx="59000" cy="14000" r="393.701" /> 
</g>
<g style="fill:#848400; fill-opacity:1.0; 
stroke:#848400; stroke-width:39.3701; stroke-opacity:1; 
stroke-linecap:round; stroke-linejoin:round;">
</g>
<g style="fill:#848400; fill-opacity:1.0; 
stroke:#848400; stroke-width:0; stroke-opacity:1; 
stroke-linecap:round; stroke-linejoin:round;">
<circle cx="60771.7" cy="14000" r="393.701" /> 
</g>
<g style="fill:#848400; fill-opacity:1.0; 
stroke:#848400; stroke-width:39.3701; stroke-opacity:1; 
stroke-linecap:round; stroke-linejoin:round;">
</g>
<g style="fill:#008400; fill-opacity:1.0; 
stroke:#008400; stroke-width:39.3701; stroke-opacity:1; 
stroke-linecap:round; stroke-linejoin:round;">
</g>
<g style="fill:#008400; fill-opacity:1.0; 
stroke:#008400; stroke-width:0; stroke-opacity:1; 
stroke-linecap:round; stroke-linejoin:round;">
<polyline style="fill-rule:evenodd;"
points="52751,21596
54248,21596
54248,22383
52751,22383
52751,21596
" /> 
<polyline style="fill-rule:evenodd;"
points="53204,19116
53795,19116
53795,19903
53204,19903
53204,19116
" /> 
<polyline style="fill-rule:evenodd;"
points="54110,19116
54700,19116
54700,19903
54110,19903
54110,19116
" /> 
<polyline style="fill-rule:evenodd;"
points="52299,19116
52889,19116
52889,19903
52299,19903
52299,19116
" /> 
</g>
<g style="fill:#C2C2C2; fill-opacity:1.0; 
stroke:#C2C2C2; stroke-width:0; stroke-opacity:1; 
stroke-linecap:round; stroke-linejoin:round;">
<circle cx="56750" cy="30500" r="196.85" /> 
</g>
<g style="fill:#C2C2C2; fill-opacity:1.0; 
stroke:#C2C2C2; stroke-width:39.3701; stroke-opacity:1; 
stroke-linecap:round; stroke-linejoin:round;">
</g>
<g style="fill:#C2C2C2; fill-opacity:1.0; 
stroke:#C2C2C2; stroke-width:0; stroke-opacity:1; 
stroke-linecap:round; stroke-linejoin:round;">
<circle cx="48750" cy="26000" r="196.85" /> 
</g>
<g style="fill:#C2C2C2; fill-opacity:1.0; 
stroke:#C2C2C2; stroke-width:39.3701; stroke-opacity:1; 
stroke-linecap:round; stroke-linejoin:round;">
</g>
<g style="fill:#C2C2C2; fill-opacity:1.0; 
stroke:#C2C2C2; stroke-width:0; stroke-opacity:1; 
stroke-linecap:round; stroke-linejoin:round;">
<circle cx="48750" cy="26000" r="196.85" /> 
</g>
<g style="fill:#C2C2C2; fill-opacity:1.0; 
stroke:#C2C2C2; stroke-width:39.3701; stroke-opacity:1; 
stroke-linecap:round; stroke-linejoin:round;">
</g>
<g style="fill:#008400; fill-opacity:1.0; 
stroke:#008400; stroke-width:39.3701; stroke-opacity:1; 
stroke-linecap:round; stroke-linejoin:round;">
</g>
<g style="fill:#008400; fill-opacity:1.0; 
stroke:#008400; stroke-width:196.85; stroke-opacity:1; 
stroke-linecap:round; stroke-linejoin:round;">
</g>
<g style="fill:#008400; fill-opacity:0.0; 
stroke:#008400; stroke-width:196.85; stroke-opacity:1; 
stroke-linecap:round; stroke-linejoin:round;">
<path d="M59403 22096
L59500 22000
" />
<path d="M60771 11440
L60771 11997
" />
<path d="M54405 15405
L54405 19509
" />
<path d="M52500 13500
L54405 15405
" />
<path d="M51492 13500
L52500 13500
" />
<path d="M60000 29000
L59500 29500
" />
<path d="M60000 26000
L60000 29000
" />
<path d="M59500 29500
L58500 29500
" />
<path d="M57000 22903
L58000 22903
" />
<path d="M59403 22903
L59500 23000
" />
<path d="M58750 22903
L59403 22903
" />
<path d="M58000 22903
L58750 22903
" />
<path d="M47000 13000
L47000 12250
" />
<path d="M47000 12250
L47750 11500
" />
<path d="M47750 11500
L49250 11500
" />
<path d="M61500 19250
L61500 19695
" />
<path d="M61500 21250
L61750 21500
" />
<path d="M61500 19695
L61500 21250
" />
<path d="M60750 20500
L61500 21250
" />
<path d="M56500 25500
L56000 25500
" />
<path d="M57000 25000
L56500 25500
" />
<path d="M57000 22903
L57000 25000
" />
<path d="M55000 28000
L55000 26250
" />
<path d="M55000 26250
L55750 25500
" />
<path d="M55750 25500
L56000 25500
" />
<path d="M59500 23000
L61750 23000
" />
<path d="M61750 21500
L61750 23000
" />
<path d="M53500 19509
L53500 20100
" />
<path d="M53500 20100
L53899 20500
" />
<path d="M55000 18000
L55500 18500
" />
<path d="M55000 14250
L55000 18000
" />
<path d="M55500 18500
L55500 20500
" />
<path d="M55500 20500
L60750 20500
" />
<path d="M49250 11500
L52250 11500
" />
<path d="M53899 20500
L55500 20500
" />
<path d="M52250 11500
L55000 14250
" />
<path d="M52000 25500
L52000 28000
" />
<path d="M52000 25500
L52000 24500
" />
<path d="M51500 24000
L47000 24000
" />
<path d="M52000 24500
L51500 24000
" />
<path d="M57000 15250
L57250 15250
" />
<path d="M57250 15250
L57500 15000
" />
<path d="M57500 15000
L57500 14059
" />
<path d="M56500 16968
L57000 16468
" />
<path d="M56500 17500
L56500 16968
" />
<path d="M57000 16468
L57000 15250
" />
<path d="M53250 11945
L53804 12500
" />
<path d="M53250 11500
L53250 11945
" />
<path d="M53804 12500
L57500 12500
" />
<path d="M57500 12500
L57500 11500
" />
<path d="M57500 14059
L57500 12500
" />
<path d="M59000 14000
L59000 11440
" />
<path d="M59596 15250
L59250 15250
" />
<path d="M59250 15250
L59000 15000
" />
<path d="M59000 16000
L59000 14750
" />
<path d="M57500 17500
L59000 16000
" />
<path d="M59000 14750
L59000 14000
" />
<path d="M59000 15000
L59000 14750
" />
<path d="M57500 17500
L57500 19250
" />
<path d="M52000 16000
L52000 17500
" />
<path d="M53000 16000
L53000 17500
" />
<path d="M47000 16000
L47000 22000
" />
<path d="M47500 23000
L47000 23000
" />
<path d="M47000 15000
L47500 15000
" />
<path d="M48000 22500
L47500 23000
" />
<path d="M47500 15000
L48000 15500
" />
<path d="M48000 15500
L48000 22500
" />
<path d="M47000 28000
L50000 28000
" />
<path d="M47000 29000
L47500 29500
" />
<path d="M47500 29500
L53000 29500
" />
<path d="M53000 29500
L54500 29500
" />
<path d="M46000 25000
L47000 25000
" />
<path d="M45500 30000
L45500 25500
" />
<path d="M45500 25500
L46000 25000
" />
<path d="M56000 28000
L56000 30250
" />
<path d="M56000 30250
L55500 30750
" />
<path d="M55500 30750
L46250 30750
" />
<path d="M46250 30750
L45500 30000
" />
<path d="M46500 27000
L47000 27000
" />
<path d="M55250 28750
L55500 29000
" />
<path d="M46500 30250
L46000 29750
" />
<path d="M54000 28473
L54276 28750
" />
<path d="M54276 28750
L55250 28750
" />
<path d="M46000 29750
L46000 27500
" />
<path d="M55500 30000
L55250 30250
" />
<path d="M54000 28000
L54000 28473
" />
<path d="M55250 30250
L46500 30250
" />
<path d="M55500 29000
L55500 30000
" />
<path d="M46000 27500
L46500 27000
" />
<path d="M56750 30500
L56750 30500
" />
<path d="M57000 28473
L57000 28000
" />
<path d="M57000 28500
L57000 28473
" />
<path d="M56750 28750
L57000 28500
" />
<path d="M56750 30500
L56750 28750
" />
<path d="M47236 26000
L47000 26000
" />
<path d="M47000 26000
L48750 26000
" />
<path d="M48750 26000
L48750 26000
" />
<path d="M48750 26000
L48750 26000
" />
</g>
<g style="fill:#008400; fill-opacity:1.0; 
stroke:#008400; stroke-width:100; stroke-opacity:1; 
stroke-linecap:round; stroke-linejoin:round;">
<polyline style="fill-rule:evenodd;"
points="63470,31220
45029,31220
45029,25500
45144,25500
45151,25534
45151,29965
45144,30000
45151,30034
45151,30034
45171,30135
45248,30251
45277,30270
45979,30972
45998,31001
46027,31020
46027,31020
46114,31078
46215,31098
46215,31098
46250,31105
46284,31098
55465,31098
55500,31105
55534,31098
55534,31098
55635,31078
55751,31001
55770,30972
56222,30520
56251,30501
56303,30423
56303,30588
56371,30753
56496,30878
56661,30946
56838,30946
57003,30878
57128,30753
57196,30588
57196,30411
57128,30246
57098,30216
57098,29387
57935,29387
57935,29612
58021,29820
58179,29978
58387,30064
58612,30064
58820,29978
58950,29848
59465,29848
59500,29855
59534,29848
59534,29848
59635,29828
59751,29751
59770,29722
60222,29270
60251,29251
60270,29222
60328,29135
60328,29135
60348,29034
60348,29034
60355,29000
60348,28965
60348,26506
60512,26342
60604,26120
60604,25879
60512,25657
60442,25588
60495,25566
60566,25495
60604,25404
60604,25112
60541,25050
60050,25050
60050,25057
59950,25057
59950,25050
59458,25050
59395,25112
59395,25404
59433,25495
59504,25566
59557,25588
59487,25657
59395,25879
59395,26120
59487,26342
59651,26506
59651,28855
59355,29151
58950,29151
58820,29021
58612,28935
58387,28935
58179,29021
58021,29179
57935,29387
57098,29387
57098,28894
57222,28770
57251,28751
57274,28715
57328,28635
57333,28609
57348,28534
57348,28534
57355,28500
57349,28469
57421,28421
57550,28228
57596,28000
57550,27771
57421,27578
57228,27449
57057,27415
56942,27415
56771,27449
56578,27578
56500,27695
56421,27578
56228,27449
56057,27415
55942,27415
55771,27449
55578,27578
55500,27695
55421,27578
55348,27529
55348,26394
55739,26003
55887,26064
56112,26064
56320,25978
56450,25848
56465,25848
56500,25855
56534,25848
56534,25848
56635,25828
56751,25751
56770,25722
57222,25270
57251,25251
57328,25135
57348,25034
57348,25034
57355,25000
57348,24965
57348,24595
59395,24595
59395,24887
59458,24950
59950,24950
59950,24458
60050,24458
60050,24950
60541,24950
60604,24887
60604,24595
60566,24504
60495,24433
60404,24395
60112,24395
60050,24458
59950,24458
59887,24395
59595,24395
59504,24433
59433,24504
59395,24595
57348,24595
57348,23333
57427,23281
57446,23251
57553,23251
57572,23281
57687,23357
57822,23384
58177,23384
58312,23357
58427,23281
58446,23251
58965,23251
59078,23421
59271,23550
59442,23584
59557,23584
59728,23550
59921,23421
59970,23348
61715,23348
61750,23355
61885,23328
62001,23251
62078,23135
62098,23034
62105,23000
62098,22965
62098,21534
62105,21500
62098,21465
62098,21465
62078,21364
62063,21341
62020,21277
62020,21277
62001,21248
61972,21229
61848,21105
61848,19696
61907,19657
62032,19470
62076,19250
62032,19029
61907,18842
61720,18717
61555,18685
61444,18685
61279,18717
61092,18842
60967,19029
60923,19250
60967,19470
61092,19657
61151,19696
61151,20408
61020,20277
61001,20248
60885,20171
60784,20151
60784,20151
60750,20144
60715,20151
55848,20151
55848,18534
55855,18499
55848,18465
55848,18465
55828,18364
55751,18248
55722,18229
55348,17855
55348,15362
55716,15362
55716,15575
55754,15667
55824,15737
55916,15775
56080,15775
56142,15713
56142,15300
55779,15300
55716,15362
55348,15362
55348,14924
55716,14924
55716,15137
55779,15200
56142,15200
56142,14786
56080,14724
55916,14724
55824,14762
55754,14832
55716,14924
55348,14924
55348,14521
55384,14617
55624,14707
55880,14697
56072,14617
56111,14512
55728,14129
55722,14135
55652,14064
55657,14059
55799,14059
56182,14442
56287,14403
56376,14163
56366,13907
56287,13714
56182,13676
55799,14059
55657,14059
55274,13676
55169,13714
55112,13869
54848,13605
55345,13605
55728,13988
56111,13605
56072,13500
55832,13411
55576,13420
55384,13500
55345,13605
54848,13605
54091,12848
57151,12848
57151,13506
57135,13513
56954,13694
56856,13931
56856,14187
56954,14423
57135,14604
57151,14611
57151,14724
57127,14719
56872,14719
56736,14746
56622,14822
56621,14823
56560,14762
56469,14724
56305,14724
56242,14786
56242,15200
56250,15200
56250,15300
56242,15300
56242,15713
56305,15775
56469,15775
56560,15737
56621,15676
56622,15677
56651,15696
56651,16324
56277,16697
56248,16717
56229,16746
56229,16746
56171,16832
56155,16912
56067,16929
55985,16985
55929,17067
55910,17165
55910,17834
55929,17932
55985,18014
56067,18070
56165,18089
56834,18089
56932,18070
57014,18014
57070,17932
57073,17914
57078,17921
57151,17970
57151,18799
57021,18929
56935,19137
56935,19362
57021,19570
57179,19728
57387,19814
57612,19814
57820,19728
57978,19570
58064,19362
58064,19137
57978,18929
57848,18799
57848,17970
57921,17921
58050,17728
58096,17500
58078,17413
59222,16270
59251,16251
59328,16135
59348,16034
59348,16034
59355,16000
59348,15965
59348,15756
59468,15780
59724,15780
59859,15753
59974,15677
59974,15676
60035,15737
60127,15775
60291,15775
60353,15713
60353,15300
60453,15300
60453,15713
60516,15775
60679,15775
60771,15737
60841,15667
60879,15575
60879,15362
60817,15300
60453,15300
60353,15300
60345,15300
60345,15200
60353,15200
60353,14786
60453,14786
60453,15200
60817,15200
60879,15137
60879,14924
60841,14832
60771,14762
60679,14724
60516,14724
60453,14786
60353,14786
60291,14724
60127,14724
60035,14762
59974,14823
59974,14822
59859,14746
59724,14719
59468,14719
59348,14743
59348,14552
59364,14545
59456,14453
60388,14453
60427,14558
60667,14647
60923,14638
61115,14558
61154,14453
60771,14070
60388,14453
59456,14453
59545,14364
59643,14128
59643,13895
60123,13895
60133,14151
60212,14344
60317,14383
60700,14000
60842,14000
61225,14383
61330,14344
61419,14104
61410,13848
61330,13655
61225,13616
60842,14000
60700,14000
60317,13616
60212,13655
60123,13895
59643,13895
59643,13871
59545,13635
59456,13546
60388,13546
60771,13929
61154,13546
61115,13441
60875,13352
60619,13361
60427,13441
60388,13546
59456,13546
59364,13454
59348,13447
59348,11993
59364,11986
59456,11894
60388,11894
60427,11999
60667,12088
60923,12079
61115,11999
61154,11894
60771,11511
60388,11894
59456,11894
59545,11805
59643,11568
59643,11336
60123,11336
60133,11592
60212,11785
60317,11823
60700,11440
60842,11440
61225,11823
61330,11785
61419,11545
61410,11289
61330,11096
61225,11057
60842,11440
60700,11440
60317,11057
60212,11096
60123,11336
59643,11336
59643,11312
59545,11076
59456,10987
60388,10987
60771,11370
61154,10987
61115,10882
60875,10792
60619,10802
60427,10882
60388,10987
59456,10987
59364,10895
59128,10797
58871,10797
58635,10895
58454,11076
58356,11312
58356,11568
58454,11805
58635,11986
58651,11993
58651,13447
58635,13454
58454,13635
58356,13871
58356,14128
58454,14364
58635,14545
58651,14552
58651,14965
58644,15000
58651,15034
58651,15034
58651,15034
58651,15855
57586,16921
57557,16915
57442,16915
57271,16949
57078,17078
57073,17085
57070,17067
57014,16985
56991,16969
57222,16739
57251,16719
57328,16604
57348,16502
57348,16502
57355,16468
57348,16434
57348,15696
57377,15677
57454,15562
57461,15527
57501,15501
57520,15472
57722,15270
57751,15251
57770,15222
57828,15135
57832,15114
57848,15034
57848,15034
57855,15000
57848,14965
57848,14611
57864,14604
58045,14423
58143,14187
58143,13931
58045,13694
57864,13513
57848,13506
57848,12534
57855,12500
57848,12465
57848,12052
57864,12045
58045,11864
58143,11628
58143,11371
58045,11135
57864,10954
57628,10856
57371,10856
57135,10954
56954,11135
56856,11371
56856,11628
56954,11864
57135,12045
57151,12052
57151,12151
53948,12151
53751,11953
55345,11953
55384,12058
55624,12147
55880,12138
56072,12058
56111,11953
55728,11570
55345,11953
53751,11953
53673,11875
53728,11820
53814,11612
53814,11395
55080,11395
55089,11651
55169,11844
55274,11883
55657,11500
55799,11500
56182,11883
56287,11844
56376,11604
56366,11348
56287,11155
56182,11116
55799,11500
55657,11500
55274,11116
55169,11155
55080,11395
53814,11395
53814,11387
53728,11179
53595,11046
55345,11046
55728,11429
56111,11046
56072,10941
55832,10852
55576,10861
55384,10941
55345,11046
53595,11046
53570,11021
53362,10935
53137,10935
52929,11021
52771,11179
52685,11387
52685,11442
52520,11277
52501,11248
52385,11171
52284,11151
52284,11151
52250,11144
52215,11151
49696,11151
49657,11092
49470,10967
49305,10935
49194,10935
49029,10967
48842,11092
48803,11151
47784,11151
47750,11144
47715,11151
47715,11151
47614,11171
47527,11229
47527,11229
47498,11248
47479,11277
46777,11979
46748,11998
46729,12027
46729,12027
46671,12114
46644,12250
46651,12284
46651,12529
46578,12578
46449,12771
46403,13000
46449,13228
46578,13421
46704,13505
46653,13529
46499,13698
46432,13859
46480,13950
46950,13950
46950,13942
47050,13942
47050,13950
47519,13950
47567,13859
47500,13698
47422,13612
50592,13612
50592,13805
50630,13897
50700,13967
50792,14005
50887,14005
50950,13943
50950,13550
50655,13550
50592,13612
47422,13612
47346,13529
47295,13505
47421,13421
47550,13228
47557,13194
50592,13194
50592,13387
50655,13450
50950,13450
50950,13056
50887,12994
50792,12994
50700,13032
50630,13102
50592,13194
47557,13194
47596,13000
47550,12771
47421,12578
47348,12529
47348,12394
47894,11848
48803,11848
48842,11907
49029,12032
49194,12064
49305,12064
49470,12032
49657,11907
49696,11848
52105,11848
54651,14394
54651,15150
54627,15134
52770,13277
52751,13248
52635,13171
52534,13151
52534,13151
52500,13144
52465,13151
51815,13151
51785,13107
51651,13017
51492,12986
51333,13017
51304,13037
51299,13032
51207,12994
51112,12994
51050,13056
51050,13450
51057,13450
51057,13550
51050,13550
51050,13943
51112,14005
51207,14005
51299,13967
51304,13962
51333,13982
51492,14013
51651,13982
51785,13892
51815,13848
52355,13848
54057,15549
54057,18871
54012,18880
53952,18920
53892,18880
53795,18861
53204,18861
53107,18880
53047,18920
53031,18904
52939,18866
52706,18866
52644,18928
52644,19459
52652,19459
52652,19559
52644,19559
52644,20091
52706,20153
52939,20153
53031,20115
53047,20099
53107,20139
53154,20148
53171,20236
53229,20322
53229,20322
53248,20351
53277,20371
53628,20722
53648,20751
53677,20770
53677,20770
53763,20828
53865,20848
53865,20848
53899,20855
53933,20848
55465,20848
55500,20855
55534,20848
60605,20848
61229,21472
61248,21501
61277,21520
61277,21520
61277,21520
61401,21644
61401,22651
59970,22651
59921,22578
59912,22572
59976,22546
60046,22476
60084,22384
60084,22112
60022,22050
59550,22050
59550,22057
59450,22057
59450,22050
58977,22050
58915,22112
58915,22384
58953,22476
59023,22546
59044,22555
58446,22555
58427,22525
58426,22525
58487,22464
58525,22372
58525,22208
58463,22146
58050,22146
58050,22154
57950,22154
57950,22146
57536,22146
57500,22183
57463,22146
57050,22146
57050,22154
56950,22154
56950,22146
56536,22146
56474,22208
56474,22372
56512,22464
56573,22525
56572,22525
56496,22640
56469,22775
56469,23031
56496,23166
56572,23281
56651,23333
56651,24855
56403,25104
56320,25021
56112,24935
55887,24935
55679,25021
55521,25179
55482,25273
55479,25277
54777,25979
54748,25998
54729,26027
54729,26027
54671,26114
54644,26250
54651,26284
54651,27529
54578,27578
54500,27695
54421,27578
54228,27449
54057,27415
53942,27415
53771,27449
53578,27578
53494,27704
53470,27653
53301,27499
53140,27432
53050,27480
53050,27950
53057,27950
53057,28050
53050,28050
53050,28519
53140,28567
53301,28500
53470,28346
53494,28295
53578,28421
53646,28466
53644,28473
53671,28609
53729,28695
53729,28695
53748,28724
53777,28743
54006,28972
54025,29001
54054,29020
54054,29020
54127,29069
54092,29092
54053,29151
47644,29151
47578,29086
47596,29000
47550,28771
47421,28578
47304,28500
47421,28421
47470,28348
49413,28348
49429,28432
49485,28514
49567,28570
49665,28589
50334,28589
50432,28570
50514,28514
50570,28432
50573,28414
50578,28421
50771,28550
50942,28584
51057,28584
51228,28550
51421,28421
51500,28304
51578,28421
51771,28550
51942,28584
52057,28584
52228,28550
52421,28421
52505,28295
52529,28346
52698,28500
52859,28567
52950,28519
52950,28050
52942,28050
52942,27950
52950,27950
52950,27480
52859,27432
52698,27499
52529,27653
52505,27704
52421,27578
52348,27529
52348,25946
52407,25907
52532,25720
52576,25500
52532,25279
52407,25092
52348,25053
52348,24534
52355,24499
52348,24465
52348,24465
52328,24364
52251,24248
52222,24229
51770,23777
51751,23748
51635,23671
51534,23651
51534,23651
51500,23644
51465,23651
47470,23651
47421,23578
47304,23500
47421,23421
47469,23349
47500,23355
47534,23348
47534,23348
47635,23328
47751,23251
47770,23222
48222,22770
48251,22751
48328,22635
48348,22534
48348,22534
48355,22500
48348,22465
48348,21596
52497,21596
52497,22383
52516,22481
52571,22564
52654,22619
52751,22638
54248,22638
54345,22619
54428,22564
54483,22481
54502,22383
54502,21820
56474,21820
56474,21983
56536,22046
56950,22046
56950,21682
57050,21682
57050,22046
57463,22046
57500,22009
57536,22046
57950,22046
57950,21682
58050,21682
58050,22046
58463,22046
58525,21983
58525,21820
58487,21728
58417,21658
58325,21620
58112,21620
58050,21682
57950,21682
57887,21620
57674,21620
57582,21658
57512,21728
57500,21758
57487,21728
57417,21658
57325,21620
57112,21620
57050,21682
56950,21682
56887,21620
56674,21620
56582,21658
56512,21728
56474,21820
54502,21820
54502,21615
58915,21615
58915,21887
58977,21950
59450,21950
59450,21477
59550,21477
59550,21950
60022,21950
60084,21887
60084,21615
60046,21523
59976,21453
59884,21415
59612,21415
59550,21477
59450,21477
59387,21415
59115,21415
59023,21453
58953,21523
58915,21615
54502,21615
54502,21596
54483,21498
54428,21416
54345,21360
54248,21341
52751,21341
52654,21360
52571,21416
52516,21498
52497,21596
48348,21596
48348,19622
52049,19622
52049,19953
52087,20045
52157,20115
52249,20153
52481,20153
52544,20091
52544,19559
52111,19559
52049,19622
48348,19622
48348,19066
52049,19066
52049,19397
52111,19459
52544,19459
52544,18928
52481,18866
52249,18866
52157,18904
52087,18974
52049,19066
48348,19066
48348,16140
48432,16140
48529,16346
48698,16500
48859,16567
48950,16519
48950,16050
48479,16050
48432,16140
48348,16140
48348,15859
48432,15859
48479,15950
48950,15950
48950,15480
49050,15480
49050,15950
49057,15950
49057,16050
49050,16050
49050,16519
49140,16567
49301,16500
49470,16346
49494,16295
49578,16421
49771,16550
49942,16584
50057,16584
50228,16550
50421,16421
50500,16304
50578,16421
50771,16550
50942,16584
51057,16584
51228,16550
51421,16421
51500,16304
51578,16421
51651,16470
51651,16913
51567,16929
51485,16985
51429,17067
51410,17165
51410,17834
51429,17932
51485,18014
51567,18070
51665,18089
52334,18089
52432,18070
52514,18014
52570,17932
52573,17914
52578,17921
52771,18050
52942,18084
53057,18084
53228,18050
53421,17921
53550,17728
53596,17500
53550,17271
53421,17078
53348,17029
53348,16586
53432,16570
53514,16514
53570,16432
53589,16334
53589,15665
53570,15567
53514,15485
53432,15429
53334,15410
52665,15410
52567,15429
52485,15485
52429,15567
52426,15585
52421,15578
52228,15449
52057,15415
51942,15415
51771,15449
51578,15578
51500,15695
51421,15578
51228,15449
51057,15415
50942,15415
50771,15449
50578,15578
50500,15695
50421,15578
50228,15449
50057,15415
49942,15415
49771,15449
49578,15578
49494,15704
49470,15653
49301,15499
49140,15432
49050,15480
48950,15480
48859,15432
48698,15499
48529,15653
48432,15859
48348,15859
48348,15534
48355,15499
48348,15465
48348,15465
48328,15364
48299,15321
48270,15277
48270,15277
48251,15248
48222,15229
47770,14777
47751,14748
47635,14671
47534,14651
47534,14651
47500,14644
47469,14650
47421,14578
47295,14494
47346,14470
47500,14301
47567,14140
47519,14050
47050,14050
47050,14057
46950,14057
46950,14050
46480,14050
46432,14140
46499,14301
46653,14470
46704,14494
46578,14578
46449,14771
46403,15000
46449,15228
46578,15421
46585,15426
46567,15429
46485,15485
46429,15567
46410,15665
46410,16334
46429,16432
46485,16514
46567,16570
46651,16586
46651,21413
46567,21429
46485,21485
46429,21567
46410,21665
46410,22334
46429,22432
46485,22514
46567,22570
46585,22573
46578,22578
46449,22771
46403,23000
46449,23228
46578,23421
46695,23500
46578,23578
46449,23771
46403,24000
46449,24228
46578,24421
46695,24500
46578,24578
46529,24651
46034,24651
45999,24644
45965,24651
45965,24651
45864,24671
45864,24671
45864,24671
45777,24729
45777,24729
45748,24748
45729,24777
45277,25229
45248,25248
45229,25277
45229,25277
45171,25364
45144,25500
45029,25500
45029,10279
63470,10279
63470,31220
" /> 
</g>
<g style="fill:#FFFFFF; fill-opacity:1.0; 
stroke:#FFFFFF; stroke-width:100; stroke-opacity:1; 
stroke-linecap:round; stroke-linejoin:round;">
</g>
<g style="fill:#FFFFFF; fill-opacity:1.0; 
stroke:#FFFFFF; stroke-width:0; stroke-opacity:1; 
stroke-linecap:round; stroke-linejoin:round;">
<circle cx="56750" cy="30500" r="78.7402" /> 
</g>
<g style="fill:#FFFFFF; fill-opacity:1.0; 
stroke:#FFFFFF; stroke-width:39.3701; stroke-opacity:1; 
stroke-linecap:round; stroke-linejoin:round;">
</g>
<g style="fill:#FFFFFF; fill-opacity:1.0; 
stroke:#FFFFFF; stroke-width:0; stroke-opacity:1; 
stroke-linecap:round; stroke-linejoin:round;">
<circle cx="48750" cy="26000" r="78.7402" /> 
</g>
<g style="fill:#FFFFFF; fill-opacity:1.0; 
stroke:#FFFFFF; stroke-width:39.3701; stroke-opacity:1; 
stroke-linecap:round; stroke-linejoin:round;">
</g>
<g style="fill:#FFFFFF; fill-opacity:1.0; 
stroke:#FFFFFF; stroke-width:0; stroke-opacity:1; 
stroke-linecap:round; stroke-linejoin:round;">
<circle cx="48750" cy="26000" r="78.7402" /> 
</g>
<g style="fill:#FFFFFF; fill-opacity:1.0; 
stroke:#FFFFFF; stroke-width:39.3701; stroke-opacity:1; 
stroke-linecap:round; stroke-linejoin:round;">
</g>
<g style="fill:#FFFFFF; fill-opacity:1.0; 
stroke:#FFFFFF; stroke-width:0; stroke-opacity:1; 
stroke-linecap:round; stroke-linejoin:round;">
<circle cx="47000" cy="22000" r="196.85" /> 
</g>
<g style="fill:#FFFFFF; fill-opacity:1.0; 
stroke:#FFFFFF; stroke-width:39.3701; stroke-opacity:1; 
stroke-linecap:round; stroke-linejoin:round;">
</g>
<g style="fill:#FFFFFF; fill-opacity:1.0; 
stroke:#FFFFFF; stroke-width:0; stroke-opacity:1; 
stroke-linecap:round; stroke-linejoin:round;">
<circle cx="47000" cy="23000" r="196.85" /> 
</g>
<g style="fill:#FFFFFF; fill-opacity:1.0; 
stroke:#FFFFFF; stroke-width:39.3701; stroke-opacity:1; 
stroke-linecap:round; stroke-linejoin:round;">
</g>
<g style="fill:#FFFFFF; fill-opacity:1.0; 
stroke:#FFFFFF; stroke-width:0; stroke-opacity:1; 
stroke-linecap:round; stroke-linejoin:round;">
<circle cx="47000" cy="24000" r="196.85" /> 
</g>
<g style="fill:#FFFFFF; fill-opacity:1.0; 
stroke:#FFFFFF; stroke-width:39.3701; stroke-opacity:1; 
stroke-linecap:round; stroke-linejoin:round;">
</g>
<g style="fill:#FFFFFF; fill-opacity:1.0; 
stroke:#FFFFFF; stroke-width:0; stroke-opacity:1; 
stroke-linecap:round; stroke-linejoin:round;">
<circle cx="47000" cy="25000" r="196.85" /> 
</g>
<g style="fill:#FFFFFF; fill-opacity:1.0; 
stroke:#FFFFFF; stroke-width:39.3701; stroke-opacity:1; 
stroke-linecap:round; stroke-linejoin:round;">
</g>
<g style="fill:#FFFFFF; fill-opacity:1.0; 
stroke:#FFFFFF; stroke-width:0; stroke-opacity:1; 
stroke-linecap:round; stroke-linejoin:round;">
<circle cx="47000" cy="26000" r="196.85" /> 
</g>
<g style="fill:#FFFFFF; fill-opacity:1.0; 
stroke:#FFFFFF; stroke-width:39.3701; stroke-opacity:1; 
stroke-linecap:round; stroke-linejoin:round;">
</g>
<g style="fill:#FFFFFF; fill-opacity:1.0; 
stroke:#FFFFFF; stroke-width:0; stroke-opacity:1; 
stroke-linecap:round; stroke-linejoin:round;">
<circle cx="47000" cy="27000" r="196.85" /> 
</g>
<g style="fill:#FFFFFF; fill-opacity:1.0; 
stroke:#FFFFFF; stroke-width:39.3701; stroke-opacity:1; 
stroke-linecap:round; stroke-linejoin:round;">
</g>
<g style="fill:#FFFFFF; fill-opacity:1.0; 
stroke:#FFFFFF; stroke-width:0; stroke-opacity:1; 
stroke-linecap:round; stroke-linejoin:round;">
<circle cx="47000" cy="28000" r="196.85" /> 
</g>
<g style="fill:#FFFFFF; fill-opacity:1.0; 
stroke:#FFFFFF; stroke-width:39.3701; stroke-opacity:1; 
stroke-linecap:round; stroke-linejoin:round;">
</g>
<g style="fill:#FFFFFF; fill-opacity:1.0; 
stroke:#FFFFFF; stroke-width:0; stroke-opacity:1; 
stroke-linecap:round; stroke-linejoin:round;">
<circle cx="47000" cy="29000" r="196.85" /> 
</g>
<g style="fill:#FFFFFF; fill-opacity:1.0; 
stroke:#FFFFFF; stroke-width:39.3701; stroke-opacity:1; 
stroke-linecap:round; stroke-linejoin:round;">
</g>
<g style="fill:#FFFFFF; fill-opacity:1.0; 
stroke:#FFFFFF; stroke-width:0; stroke-opacity:1; 
stroke-linecap:round; stroke-linejoin:round;">
<circle cx="59500" cy="23000" r="196.85" /> 
</g>
<g style="fill:#FFFFFF; fill-opacity:1.0; 
stroke:#FFFFFF; stroke-width:39.3701; stroke-opacity:1; 
stroke-linecap:round; stroke-linejoin:round;">
</g>
<g style="fill:#FFFFFF; fill-opacity:1.0; 
stroke:#FFFFFF; stroke-width:0; stroke-opacity:1; 
stroke-linecap:round; stroke-linejoin:round;">
<circle cx="59500" cy="22000" r="196.85" /> 
</g>
<g style="fill:#FFFFFF; fill-opacity:1.0; 
stroke:#FFFFFF; stroke-width:39.3701; stroke-opacity:1; 
stroke-linecap:round; stroke-linejoin:round;">
</g>
<g style="fill:#FFFFFF; fill-opacity:1.0; 
stroke:#FFFFFF; stroke-width:0; stroke-opacity:1; 
stroke-linecap:round; stroke-linejoin:round;">
<circle cx="57500" cy="17500" r="196.85" /> 
</g>
<g style="fill:#FFFFFF; fill-opacity:1.0; 
stroke:#FFFFFF; stroke-width:39.3701; stroke-opacity:1; 
stroke-linecap:round; stroke-linejoin:round;">
</g>
<g style="fill:#FFFFFF; fill-opacity:1.0; 
stroke:#FFFFFF; stroke-width:0; stroke-opacity:1; 
stroke-linecap:round; stroke-linejoin:round;">
<circle cx="56500" cy="17500" r="196.85" /> 
</g>
<g style="fill:#FFFFFF; fill-opacity:1.0; 
stroke:#FFFFFF; stroke-width:39.3701; stroke-opacity:1; 
stroke-linecap:round; stroke-linejoin:round;">
</g>
<g style="fill:#FFFFFF; fill-opacity:1.0; 
stroke:#FFFFFF; stroke-width:0; stroke-opacity:1; 
stroke-linecap:round; stroke-linejoin:round;">
<circle cx="52000" cy="17500" r="196.85" /> 
</g>
<g style="fill:#FFFFFF; fill-opacity:1.0; 
stroke:#FFFFFF; stroke-width:39.3701; stroke-opacity:1; 
stroke-linecap:round; stroke-linejoin:round;">
</g>
<g style="fill:#FFFFFF; fill-opacity:1.0; 
stroke:#FFFFFF; stroke-width:0; stroke-opacity:1; 
stroke-linecap:round; stroke-linejoin:round;">
<circle cx="53000" cy="17500" r="196.85" /> 
</g>
<g style="fill:#FFFFFF; fill-opacity:1.0; 
stroke:#FFFFFF; stroke-width:39.3701; stroke-opacity:1; 
stroke-linecap:round; stroke-linejoin:round;">
</g>
<g style="fill:#FFFFFF; fill-opacity:1.0; 
stroke:#FFFFFF; stroke-width:0; stroke-opacity:1; 
stroke-linecap:round; stroke-linejoin:round;">
<circle cx="60000" cy="25000" r="177.165" /> 
</g>
<g style="fill:#FFFFFF; fill-opacity:1.0; 
stroke:#FFFFFF; stroke-width:39.3701; stroke-opacity:1; 
stroke-linecap:round; stroke-linejoin:round;">
</g>
<g style="fill:#FFFFFF; fill-opacity:1.0; 
stroke:#FFFFFF; stroke-width:0; stroke-opacity:1; 
stroke-linecap:round; stroke-linejoin:round;">
<circle cx="60000" cy="26000" r="177.165" /> 
</g>
<g style="fill:#FFFFFF; fill-opacity:1.0; 
stroke:#FFFFFF; stroke-width:39.3701; stroke-opacity:1; 
stroke-linecap:round; stroke-linejoin:round;">
</g>
<g style="fill:#FFFFFF; fill-opacity:1.0; 
stroke:#FFFFFF; stroke-width:0; stroke-opacity:1; 
stroke-linecap:round; stroke-linejoin:round;">
<circle cx="51000" cy="13500" r="98.4252" /> 
</g>
<g style="fill:#FFFFFF; fill-opacity:1.0; 
stroke:#FFFFFF; stroke-width:39.3701; stroke-opacity:1; 
stroke-linecap:round; stroke-linejoin:round;">
</g>
<g style="fill:#FFFFFF; fill-opacity:1.0; 
stroke:#FFFFFF; stroke-width:0; stroke-opacity:1; 
stroke-linecap:round; stroke-linejoin:round;">
<circle cx="51492.1" cy="13500" r="98.4252" /> 
</g>
<g style="fill:#FFFFFF; fill-opacity:1.0; 
stroke:#FFFFFF; stroke-width:39.3701; stroke-opacity:1; 
stroke-linecap:round; stroke-linejoin:round;">
</g>
<g style="fill:#FFFFFF; fill-opacity:1.0; 
stroke:#FFFFFF; stroke-width:0; stroke-opacity:1; 
stroke-linecap:round; stroke-linejoin:round;">
<circle cx="53000" cy="16000" r="196.85" /> 
</g>
<g style="fill:#FFFFFF; fill-opacity:1.0; 
stroke:#FFFFFF; stroke-width:39.3701; stroke-opacity:1; 
stroke-linecap:round; stroke-linejoin:round;">
</g>
<g style="fill:#FFFFFF; fill-opacity:1.0; 
stroke:#FFFFFF; stroke-width:0; stroke-opacity:1; 
stroke-linecap:round; stroke-linejoin:round;">
<circle cx="52000" cy="16000" r="196.85" /> 
</g>
<g style="fill:#FFFFFF; fill-opacity:1.0; 
stroke:#FFFFFF; stroke-width:39.3701; stroke-opacity:1; 
stroke-linecap:round; stroke-linejoin:round;">
</g>
<g style="fill:#FFFFFF; fill-opacity:1.0; 
stroke:#FFFFFF; stroke-width:0; stroke-opacity:1; 
stroke-linecap:round; stroke-linejoin:round;">
<circle cx="51000" cy="16000" r="196.85" /> 
</g>
<g style="fill:#FFFFFF; fill-opacity:1.0; 
stroke:#FFFFFF; stroke-width:39.3701; stroke-opacity:1; 
stroke-linecap:round; stroke-linejoin:round;">
</g>
<g style="fill:#FFFFFF; fill-opacity:1.0; 
stroke:#FFFFFF; stroke-width:0; stroke-opacity:1; 
stroke-linecap:round; stroke-linejoin:round;">
<circle cx="50000" cy="16000" r="196.85" /> 
</g>
<g style="fill:#FFFFFF; fill-opacity:1.0; 
stroke:#FFFFFF; stroke-width:39.3701; stroke-opacity:1; 
stroke-linecap:round; stroke-linejoin:round;">
</g>
<g style="fill:#FFFFFF; fill-opacity:1.0; 
stroke:#FFFFFF; stroke-width:0; stroke-opacity:1; 
stroke-linecap:round; stroke-linejoin:round;">
<circle cx="49000" cy="16000" r="196.85" /> 
</g>
<g style="fill:#FFFFFF; fill-opacity:1.0; 
stroke:#FFFFFF; stroke-width:39.3701; stroke-opacity:1; 
stroke-linecap:round; stroke-linejoin:round;">
</g>
<g style="fill:#FFFFFF; fill-opacity:1.0; 
stroke:#FFFFFF; stroke-width:0; stroke-opacity:1; 
stroke-linecap:round; stroke-linejoin:round;">
<circle cx="50000" cy="28000" r="196.85" /> 
</g>
<g style="fill:#FFFFFF; fill-opacity:1.0; 
stroke:#FFFFFF; stroke-width:39.3701; stroke-opacity:1; 
stroke-linecap:round; stroke-linejoin:round;">
</g>
<g style="fill:#FFFFFF; fill-opacity:1.0; 
stroke:#FFFFFF; stroke-width:0; stroke-opacity:1; 
stroke-linecap:round; stroke-linejoin:round;">
<circle cx="51000" cy="28000" r="196.85" /> 
</g>
<g style="fill:#FFFFFF; fill-opacity:1.0; 
stroke:#FFFFFF; stroke-width:39.3701; stroke-opacity:1; 
stroke-linecap:round; stroke-linejoin:round;">
</g>
<g style="fill:#FFFFFF; fill-opacity:1.0; 
stroke:#FFFFFF; stroke-width:0; stroke-opacity:1; 
stroke-linecap:round; stroke-linejoin:round;">
<circle cx="52000" cy="28000" r="196.85" /> 
</g>
<g style="fill:#FFFFFF; fill-opacity:1.0; 
stroke:#FFFFFF; stroke-width:39.3701; stroke-opacity:1; 
stroke-linecap:round; stroke-linejoin:round;">
</g>
<g style="fill:#FFFFFF; fill-opacity:1.0; 
stroke:#FFFFFF; stroke-width:0; stroke-opacity:1; 
stroke-linecap:round; stroke-linejoin:round;">
<circle cx="53000" cy="28000" r="196.85" /> 
</g>
<g style="fill:#FFFFFF; fill-opacity:1.0; 
stroke:#FFFFFF; stroke-width:39.3701; stroke-opacity:1; 
stroke-linecap:round; stroke-linejoin:round;">
</g>
<g style="fill:#FFFFFF; fill-opacity:1.0; 
stroke:#FFFFFF; stroke-width:0; stroke-opacity:1; 
stroke-linecap:round; stroke-linejoin:round;">
<circle cx="54000" cy="28000" r="196.85" /> 
</g>
<g style="fill:#FFFFFF; fill-opacity:1.0; 
stroke:#FFFFFF; stroke-width:39.3701; stroke-opacity:1; 
stroke-linecap:round; stroke-linejoin:round;">
</g>
<g style="fill:#FFFFFF; fill-opacity:1.0; 
stroke:#FFFFFF; stroke-width:0; stroke-opacity:1; 
stroke-linecap:round; stroke-linejoin:round;">
<circle cx="55000" cy="28000" r="196.85" /> 
</g>
<g style="fill:#FFFFFF; fill-opacity:1.0; 
stroke:#FFFFFF; stroke-width:39.3701; stroke-opacity:1; 
stroke-linecap:round; stroke-linejoin:round;">
</g>
<g style="fill:#FFFFFF; fill-opacity:1.0; 
stroke:#FFFFFF; stroke-width:0; stroke-opacity:1; 
stroke-linecap:round; stroke-linejoin:round;">
<circle cx="56000" cy="28000" r="196.85" /> 
</g>
<g style="fill:#FFFFFF; fill-opacity:1.0; 
stroke:#FFFFFF; stroke-width:39.3701; stroke-opacity:1; 
stroke-linecap:round; stroke-linejoin:round;">
</g>
<g style="fill:#FFFFFF; fill-opacity:1.0; 
stroke:#FFFFFF; stroke-width:0; stroke-opacity:1; 
stroke-linecap:round; stroke-linejoin:round;">
<circle cx="57000" cy="28000" r="196.85" /> 
</g>
<g style="fill:#FFFFFF; fill-opacity:1.0; 
stroke:#FFFFFF; stroke-width:39.3701; stroke-opacity:1; 
stroke-linecap:round; stroke-linejoin:round;">
</g>
<g style="fill:#FFFFFF; fill-opacity:1.0; 
stroke:#FFFFFF; stroke-width:0; stroke-opacity:1; 
stroke-linecap:round; stroke-linejoin:round;">
<circle cx="47000" cy="16000" r="196.85" /> 
</g>
<g style="fill:#FFFFFF; fill-opacity:1.0; 
stroke:#FFFFFF; stroke-width:39.3701; stroke-opacity:1; 
stroke-linecap:round; stroke-linejoin:round;">
</g>
<g style="fill:#FFFFFF; fill-opacity:1.0; 
stroke:#FFFFFF; stroke-width:0; stroke-opacity:1; 
stroke-linecap:round; stroke-linejoin:round;">
<circle cx="47000" cy="15000" r="196.85" /> 
</g>
<g style="fill:#FFFFFF; fill-opacity:1.0; 
stroke:#FFFFFF; stroke-width:39.3701; stroke-opacity:1; 
stroke-linecap:round; stroke-linejoin:round;">
</g>
<g style="fill:#FFFFFF; fill-opacity:1.0; 
stroke:#FFFFFF; stroke-width:0; stroke-opacity:1; 
stroke-linecap:round; stroke-linejoin:round;">
<circle cx="47000" cy="14000" r="196.85" /> 
</g>
<g style="fill:#FFFFFF; fill-opacity:1.0; 
stroke:#FFFFFF; stroke-width:39.3701; stroke-opacity:1; 
stroke-linecap:round; stroke-linejoin:round;">
</g>
<g style="fill:#FFFFFF; fill-opacity:1.0; 
stroke:#FFFFFF; stroke-width:0; stroke-opacity:1; 
stroke-linecap:round; stroke-linejoin:round;">
<circle cx="47000" cy="13000" r="196.85" /> 
</g>
<g style="fill:#FFFFFF; fill-opacity:1.0; 
stroke:#FFFFFF; stroke-width:39.3701; stroke-opacity:1; 
stroke-linecap:round; stroke-linejoin:round;">
</g>
<g style="fill:#FFFFFF; fill-opacity:1.0; 
stroke:#FFFFFF; stroke-width:0; stroke-opacity:1; 
stroke-linecap:round; stroke-linejoin:round;">
<circle cx="56000" cy="25500" r="157.48" /> 
</g>
<g style="fill:#FFFFFF; fill-opacity:1.0; 
stroke:#FFFFFF; stroke-width:39.3701; stroke-opacity:1; 
stroke-linecap:round; stroke-linejoin:round;">
</g>
<g style="fill:#FFFFFF; fill-opacity:1.0; 
stroke:#FFFFFF; stroke-width:0; stroke-opacity:1; 
stroke-linecap:round; stroke-linejoin:round;">
<circle cx="52000" cy="25500" r="157.48" /> 
</g>
<g style="fill:#FFFFFF; fill-opacity:1.0; 
stroke:#FFFFFF; stroke-width:39.3701; stroke-opacity:1; 
stroke-linecap:round; stroke-linejoin:round;">
</g>
<g style="fill:#FFFFFF; fill-opacity:1.0; 
stroke:#FFFFFF; stroke-width:0; stroke-opacity:1; 
stroke-linecap:round; stroke-linejoin:round;">
<circle cx="53250" cy="11500" r="157.48" /> 
</g>
<g style="fill:#FFFFFF; fill-opacity:1.0; 
stroke:#FFFFFF; stroke-width:39.3701; stroke-opacity:1; 
stroke-linecap:round; stroke-linejoin:round;">
</g>
<g style="fill:#FFFFFF; fill-opacity:1.0; 
stroke:#FFFFFF; stroke-width:0; stroke-opacity:1; 
stroke-linecap:round; stroke-linejoin:round;">
<circle cx="49250" cy="11500" r="157.48" /> 
</g>
<g style="fill:#FFFFFF; fill-opacity:1.0; 
stroke:#FFFFFF; stroke-width:39.3701; stroke-opacity:1; 
stroke-linecap:round; stroke-linejoin:round;">
</g>
<g style="fill:#FFFFFF; fill-opacity:1.0; 
stroke:#FFFFFF; stroke-width:0; stroke-opacity:1; 
stroke-linecap:round; stroke-linejoin:round;">
<circle cx="61500" cy="19250" r="157.48" /> 
</g>
<g style="fill:#FFFFFF; fill-opacity:1.0; 
stroke:#FFFFFF; stroke-width:39.3701; stroke-opacity:1; 
stroke-linecap:round; stroke-linejoin:round;">
</g>
<g style="fill:#FFFFFF; fill-opacity:1.0; 
stroke:#FFFFFF; stroke-width:0; stroke-opacity:1; 
stroke-linecap:round; stroke-linejoin:round;">
<circle cx="57500" cy="19250" r="157.48" /> 
</g>
<g style="fill:#FFFFFF; fill-opacity:1.0; 
stroke:#FFFFFF; stroke-width:39.3701; stroke-opacity:1; 
stroke-linecap:round; stroke-linejoin:round;">
</g>
<g style="fill:#FFFFFF; fill-opacity:1.0; 
stroke:#FFFFFF; stroke-width:0; stroke-opacity:1; 
stroke-linecap:round; stroke-linejoin:round;">
<circle cx="54500" cy="29500" r="157.48" /> 
</g>
<g style="fill:#FFFFFF; fill-opacity:1.0; 
stroke:#FFFFFF; stroke-width:39.3701; stroke-opacity:1; 
stroke-linecap:round; stroke-linejoin:round;">
</g>
<g style="fill:#FFFFFF; fill-opacity:1.0; 
stroke:#FFFFFF; stroke-width:0; stroke-opacity:1; 
stroke-linecap:round; stroke-linejoin:round;">
<circle cx="58500" cy="29500" r="157.48" /> 
</g>
<g style="fill:#FFFFFF; fill-opacity:1.0; 
stroke:#FFFFFF; stroke-width:39.3701; stroke-opacity:1; 
stroke-linecap:round; stroke-linejoin:round;">
</g>
<g style="fill:#FFFFFF; fill-opacity:1.0; 
stroke:#FFFFFF; stroke-width:0; stroke-opacity:1; 
stroke-linecap:round; stroke-linejoin:round;">
<circle cx="55728.3" cy="11500" r="216.535" /> 
</g>
<g style="fill:#FFFFFF; fill-opacity:1.0; 
stroke:#FFFFFF; stroke-width:39.3701; stroke-opacity:1; 
stroke-linecap:round; stroke-linejoin:round;">
</g>
<g style="fill:#FFFFFF; fill-opacity:1.0; 
stroke:#FFFFFF; stroke-width:0; stroke-opacity:1; 
stroke-linecap:round; stroke-linejoin:round;">
<circle cx="57500" cy="11500" r="216.535" /> 
</g>
<g style="fill:#FFFFFF; fill-opacity:1.0; 
stroke:#FFFFFF; stroke-width:39.3701; stroke-opacity:1; 
stroke-linecap:round; stroke-linejoin:round;">
</g>
<g style="fill:#FFFFFF; fill-opacity:1.0; 
stroke:#FFFFFF; stroke-width:0; stroke-opacity:1; 
stroke-linecap:round; stroke-linejoin:round;">
<circle cx="55728.3" cy="14059.1" r="216.535" /> 
</g>
<g style="fill:#FFFFFF; fill-opacity:1.0; 
stroke:#FFFFFF; stroke-width:39.3701; stroke-opacity:1; 
stroke-linecap:round; stroke-linejoin:round;">
</g>
<g style="fill:#FFFFFF; fill-opacity:1.0; 
stroke:#FFFFFF; stroke-width:0; stroke-opacity:1; 
stroke-linecap:round; stroke-linejoin:round;">
<circle cx="57500" cy="14059.1" r="216.535" /> 
</g>
<g style="fill:#FFFFFF; fill-opacity:1.0; 
stroke:#FFFFFF; stroke-width:39.3701; stroke-opacity:1; 
stroke-linecap:round; stroke-linejoin:round;">
</g>
<g style="fill:#FFFFFF; fill-opacity:1.0; 
stroke:#FFFFFF; stroke-width:0; stroke-opacity:1; 
stroke-linecap:round; stroke-linejoin:round;">
<circle cx="59000" cy="11440.9" r="216.535" /> 
</g>
<g style="fill:#FFFFFF; fill-opacity:1.0; 
stroke:#FFFFFF; stroke-width:39.3701; stroke-opacity:1; 
stroke-linecap:round; stroke-linejoin:round;">
</g>
<g style="fill:#FFFFFF; fill-opacity:1.0; 
stroke:#FFFFFF; stroke-width:0; stroke-opacity:1; 
stroke-linecap:round; stroke-linejoin:round;">
<circle cx="60771.7" cy="11440.9" r="216.535" /> 
</g>
<g style="fill:#FFFFFF; fill-opacity:1.0; 
stroke:#FFFFFF; stroke-width:39.3701; stroke-opacity:1; 
stroke-linecap:round; stroke-linejoin:round;">
</g>
<g style="fill:#FFFFFF; fill-opacity:1.0; 
stroke:#FFFFFF; stroke-width:0; stroke-opacity:1; 
stroke-linecap:round; stroke-linejoin:round;">
<circle cx="59000" cy="14000" r="216.535" /> 
</g>
<g style="fill:#FFFFFF; fill-opacity:1.0; 
stroke:#FFFFFF; stroke-width:39.3701; stroke-opacity:1; 
stroke-linecap:round; stroke-linejoin:round;">
</g>
<g style="fill:#FFFFFF; fill-opacity:1.0; 
stroke:#FFFFFF; stroke-width:0; stroke-opacity:1; 
stroke-linecap:round; stroke-linejoin:round;">
<circle cx="60771.7" cy="14000" r="216.535" /> 
</g>
<g style="fill:#FFFFFF; fill-opacity:1.0; 
stroke:#FFFFFF; stroke-width:39.3701; stroke-opacity:1; 
stroke-linecap:round; stroke-linejoin:round;">
</g>
<g style="fill:#000000; fill-opacity:1.0; 
stroke:#000000; stroke-width:39.3701; stroke-opacity:1; 
stroke-linecap:round; stroke-linejoin:round;">
</g>
<g style="fill:#C2C200; fill-opacity:1.0; 
stroke:#C2C200; stroke-width:39.3701; stroke-opacity:1; 
stroke-linecap:round; stroke-linejoin:round;">
</g>
<g style="fill:#C2C200; fill-opacity:1.0; 
stroke:#C2C200; stroke-width:59.0551; stroke-opacity:1; 
stroke-linecap:round; stroke-linejoin:round;">
</g>
<g style="fill:#C2C200; fill-opacity:0.0; 
stroke:#C2C200; stroke-width:59.0551; stroke-opacity:1; 
stroke-linecap:round; stroke-linejoin:round;">
<path d="M63750 31500
L63250 31500
" />
<path d="M63750 10000
L63750 31500
" />
<path d="M44750 10000
L63750 10000
" />
<path d="M44750 31500
L44750 10000
" />
<path d="M63250 31500
L44750 31500
" />
</g> 
</svg>
